<?xml version="1.0" encoding="UTF-8" standalone="no"?>
<svg
   xmlns:dc="http://purl.org/dc/elements/1.1/"
   xmlns:cc="http://creativecommons.org/ns#"
   xmlns:rdf="http://www.w3.org/1999/02/22-rdf-syntax-ns#"
   xmlns:svg="http://www.w3.org/2000/svg"
   xmlns="http://www.w3.org/2000/svg"
   xmlns:sodipodi="http://sodipodi.sourceforge.net/DTD/sodipodi-0.dtd"
   xmlns:inkscape="http://www.inkscape.org/namespaces/inkscape"
   width="54mm"
   height="128.5mm"
   viewBox="0 0 54.000001 128.5"
   version="1.1"
   id="svg8"
   inkscape:version="1.0.2-2 (e86c870879, 2021-01-15)"
   sodipodi:docname="MidiPlugin.svg">
  <defs
     id="defs2" />
  <sodipodi:namedview
     id="base"
     pagecolor="#ffffff"
     bordercolor="#666666"
     borderopacity="1.0"
     inkscape:pageopacity="0.0"
     inkscape:pageshadow="2"
     inkscape:zoom="1.4142136"
     inkscape:cx="-10.316637"
     inkscape:cy="303.74005"
     inkscape:document-units="mm"
     inkscape:current-layer="layer1"
     inkscape:document-rotation="0"
     showgrid="true"
     units="mm"
     inkscape:pagecheckerboard="false"
     inkscape:window-width="1366"
     inkscape:window-height="715"
     inkscape:window-x="-8"
     inkscape:window-y="-8"
     inkscape:window-maximized="1"
     showguides="false">
    <inkscape:grid
       type="xygrid"
       id="grid28"
       dotted="true"
       units="px" />
  </sodipodi:namedview>
  <metadata
     id="metadata5">
    <rdf:RDF>
      <cc:Work
         rdf:about="">
        <dc:format>image/svg+xml</dc:format>
        <dc:type
           rdf:resource="http://purl.org/dc/dcmitype/StillImage" />
        <dc:title />
      </cc:Work>
    </rdf:RDF>
  </metadata>
  <g
     inkscape:label="Sfondo"
     inkscape:groupmode="layer"
     id="layer1"
     style="display:inline">
    <rect
       style="fill:#ff00ff;fill-opacity:0;stroke-width:0.264583"
       id="rect853"
       width="58.208332"
       height="132.29167"
       x="0"
       y="0" />
    <rect
       style="opacity:0.999;mix-blend-mode:normal;fill:#f0f0f0;fill-opacity:1;stroke-width:0.264495"
       id="rect855"
       width="54.239582"
       height="128.50174"
       x="0"
       y="0" />
    <path
       style="opacity:0.999;fill:#b1d5f0;fill-opacity:1;stroke-width:0.707107"
       d=""
       id="path889"
       transform="scale(0.26458333)" />
    <path
       style="opacity:0.999;fill:#b1d5f0;fill-opacity:1;stroke-width:0.0883883"
       d=""
       id="path917"
       transform="scale(0.26458333)" />
    <path
       style="opacity:0.999;fill:#b1d5f0;fill-opacity:1;stroke-width:0.0220971"
       d=""
       id="path927"
       transform="scale(0.26458333)" />
    <path
       style="opacity:0.999;fill:#b1d5f0;fill-opacity:1;stroke-width:0.0625"
       d=""
       id="path957"
       transform="scale(0.26458333)" />
    <path
       style="opacity:0.999;fill:#b1d5f0;fill-opacity:1;stroke-width:0.0625"
       d=""
       id="path959"
       transform="scale(0.26458333)" />
    <path
       style="opacity:0.999;fill:#b1d5f0;fill-opacity:1;stroke-width:0.0625"
       d=""
       id="path967"
       transform="scale(0.26458333)" />
    <path
       style="opacity:0.999;fill:#b1d5f0;fill-opacity:1;stroke-width:0.191947"
       d="M 0,64.247899 V 0 H 28.422816 56.845633 V 64.247899 128.49579 H 28.422816 0 Z"
       id="path971" />
    <g
       aria-label="Strike"
       id="text1269"
       style="font-size:3.88056px;line-height:1.25;font-family:'Ink Free';-inkscape-font-specification:'Ink Free';stroke-width:0.264583"
       transform="translate(0.64686933,0.337394)">
      <path
         d="m 30.15169,60.148474 q 0,0.194028 -0.131939,0.384175 -0.128058,0.186267 -0.364772,0.302684 -0.232834,0.120297 -0.531637,0.120297 -0.252237,0 -0.399698,-0.04269 -0.147461,-0.03881 -0.147461,-0.112536 0,-0.03881 0.05433,-0.128059 0.05821,-0.09313 0.08925,-0.09313 0.04657,0 0.04657,0.0194 0,0.01164 -0.01552,0.02716 -0.01164,0.01552 -0.01164,0.03104 0,0.01164 0.04657,0.03493 0.05045,0.02328 0.151342,0.04269 0.100894,0.0194 0.244475,0.0194 0.228953,0 0.399698,-0.08925 0.174625,-0.08925 0.267759,-0.225072 0.09313,-0.13582 0.09313,-0.263878 0,-0.166864 -0.162984,-0.287162 -0.159103,-0.120297 -0.516114,-0.228953 -0.34537,-0.112536 -0.535517,-0.186267 -0.186267,-0.07761 -0.302684,-0.186266 -0.116417,-0.112537 -0.116417,-0.27164 0,-0.21343 0.240595,-0.4191 0.240595,-0.20955 0.593726,-0.337609 0.353131,-0.131939 0.655814,-0.131939 0.155223,0 0.166864,0.06209 0.01164,0.06209 0.01164,0.1397 0,0.05821 -0.04269,0.05821 -0.0194,0 -0.04657,-0.01164 -0.02328,-0.01552 -0.04269,-0.02328 -0.02328,-0.0078 -0.05433,-0.01552 -0.03104,-0.0078 -0.08925,-0.0078 -0.201789,0 -0.48507,0.104775 -0.283281,0.104776 -0.492831,0.259998 -0.20567,0.155222 -0.20567,0.298803 0,0.116417 0.09313,0.201789 0.09701,0.08537 0.256117,0.147461 0.159103,0.05821 0.450145,0.147462 0.426861,0.124178 0.628651,0.2794 0.205669,0.155222 0.205669,0.380295 z"
         style="font-size:3.88056px;stroke-width:0.264583"
         id="path1271" />
      <path
         d="m 32.220026,59.22102 q 0,0.06597 -0.05821,0.100895 -0.05433,0.03493 -0.201789,0.05433 -0.357011,0.06209 -0.399698,0.06985 l -0.252236,0.04269 q 0,0.201789 0.0039,0.422981 0.0078,0.221192 0.0194,0.388056 0.01552,0.225072 0.05433,0.34537 0.03881,0.120297 0.04269,0.135819 0,0.03881 -0.05045,0.06985 -0.04657,0.03492 -0.08925,0.03492 -0.02328,0 -0.0388,-0.01552 -0.01552,-0.01164 -0.02716,-0.04269 -0.02328,-0.05433 -0.04657,-0.201789 -0.0194,-0.147462 -0.03104,-0.325967 -0.01164,-0.159103 -0.0194,-0.368653 -0.0039,-0.213431 -0.0039,-0.41134 -0.217311,0.03492 -0.446264,0.08537 -0.20567,0.04269 -0.244475,0.04269 -0.04657,0 -0.08925,-0.02716 -0.03881,-0.02716 -0.03881,-0.07373 0,-0.05045 0.03493,-0.06597 0.03493,-0.01552 0.116417,-0.01552 0.05821,0 0.170745,-0.0194 0.112536,-0.02328 0.14358,-0.03104 0.259998,-0.05045 0.353131,-0.06597 0,-0.08149 -0.0078,-0.213431 -0.0078,-0.178506 -0.0078,-0.271639 0,-0.151342 0.0078,-0.232834 0.01164,-0.08537 0.03881,-0.151342 0.03104,-0.07761 0.116416,-0.07761 0.03493,0 0.04657,0.01164 0.01164,0.01164 0.01164,0.04269 0,0.02328 -0.0194,0.135819 -0.0194,0.112537 -0.0194,0.298803 0,0.143581 0.0078,0.322087 l 0.0039,0.104775 q 0.174625,-0.02716 0.69074,-0.143581 0.03104,-0.0078 0.05045,-0.05433 0.02328,-0.04657 0.04657,-0.04657 0.04269,0 0.08537,0.05045 0.04657,0.04657 0.04657,0.09701 z"
         style="font-size:3.88056px;stroke-width:0.264583"
         id="path1273" />
      <path
         d="m 33.748964,59.193856 q 0,0.03493 -0.05045,0.08149 -0.04657,0.04269 -0.08149,0.04269 -0.02716,0 -0.05433,-0.02328 -0.02328,-0.02328 -0.05433,-0.06597 -0.02716,-0.0388 -0.07373,-0.06597 -0.04269,-0.02716 -0.08925,-0.02716 -0.112536,0 -0.302684,0.298803 -0.190147,0.294922 -0.372533,0.745067 0.0039,0.08925 0.01164,0.225073 0.01164,0.135819 0.01552,0.201789 l 0.01164,0.155222 q 0,0.05433 -0.02328,0.09313 -0.02328,0.04269 -0.08537,0.04269 -0.06597,0 -0.08537,-0.174625 -0.0194,-0.178506 -0.02328,-0.516115 -0.0039,-0.08537 -0.0078,-0.244475 0,-0.159103 -0.0078,-0.380295 -0.01164,-0.333728 -0.01164,-0.477309 0,-0.08925 0.108656,-0.08925 0.06597,0 0.07761,0.05821 0.01552,0.05433 0.01552,0.213431 v 0.617009 q 0.116417,-0.298804 0.252236,-0.516115 0.13582,-0.217311 0.263878,-0.329847 0.13194,-0.116417 0.232834,-0.116417 0.08537,0 0.162984,0.0388 0.07761,0.03881 0.124178,0.100895 0.04657,0.05821 0.04657,0.112536 z"
         style="font-size:3.88056px;stroke-width:0.264583"
         id="path1275" />
      <path
         d="m 34.280599,58.398341 q 0,0.05821 -0.128058,0.05821 -0.06597,0 -0.13582,-0.05433 -0.06597,-0.05433 -0.06597,-0.08925 0,-0.04269 0.0388,-0.08149 0.04269,-0.0388 0.08537,-0.0388 0,0 0.02716,0.01164 0.03104,0.0078 0.06985,0.05045 0.03104,0.03104 0.06985,0.08149 0.03881,0.05045 0.03881,0.06209 z m 0.09701,2.440873 q 0,0.03881 -0.03492,0.05821 -0.03104,0.02328 -0.07373,0.0194 -0.05433,-0.0039 -0.08149,-0.174625 -0.02328,-0.170745 -0.05045,-0.648054 -0.01552,-0.314325 -0.02716,-0.613128 -0.01164,-0.302684 -0.01552,-0.465668 0,-0.04269 0.01164,-0.06209 0.01552,-0.02328 0.05433,-0.02328 0.08925,0 0.112536,0.07373 0.02328,0.07373 0.02328,0.283281 l -0.0039,0.457906 q 0,0.391936 0.02328,0.62865 0,0.01164 0.03492,0.248356 0.02716,0.162984 0.02716,0.217312 z"
         style="font-size:3.88056px;stroke-width:0.264583"
         id="path1277" />
      <path
         d="m 36.636093,59.155051 q 0,0.05433 -0.05433,0.116416 -0.05045,0.05821 -0.09701,0.05821 -0.03104,0 -0.06985,-0.03104 -0.03881,-0.03493 -0.05433,-0.03493 -0.104775,0 -0.333728,0.143581 -0.228953,0.143581 -0.469548,0.337609 -0.240595,0.194028 -0.368653,0.329847 l 0.0039,0.06985 q 0.294923,0.13582 0.655815,0.291042 0.360892,0.155223 0.500592,0.182387 0.05433,0.0078 0.108656,0.01164 0.05433,0.0039 0.07761,0.0039 0.03493,0 0.05821,0.0039 0.02328,0.0039 0.02328,0.01552 0,0.04657 -0.07373,0.09313 -0.06985,0.04657 -0.213431,0.04657 -0.128058,0 -0.34925,-0.09313 -0.217311,-0.09701 -0.516115,-0.252236 L 35.219689,60.32698 q 0.05045,0.492831 0.05045,0.543278 0,0.04269 -0.04269,0.06985 -0.04269,0.02716 -0.09313,0.02716 -0.03105,0 -0.05045,-0.09313 -0.0194,-0.09313 -0.04657,-0.368654 l -0.02716,-0.236714 q -0.04657,-0.0194 -0.08149,-0.05433 -0.03493,-0.03881 -0.03493,-0.06985 0,-0.04657 0.07761,-0.108655 -0.0039,-0.209551 -0.02328,-0.597607 -0.01552,-0.388056 -0.02328,-0.566561 l -0.0194,-0.539398 q 0,-0.108656 0.02716,-0.186267 0.02716,-0.07761 0.120297,-0.07761 0.03493,0 0.04657,0.01552 0.01164,0.01164 0.01164,0.05045 0,0.178506 0.02328,0.83044 0.02716,0.648054 0.04269,0.923573 0.865365,-0.822678 1.265062,-0.822678 0.08149,0 0.13582,0.03104 0.05821,0.02716 0.05821,0.05821 z"
         style="font-size:3.88056px;stroke-width:0.264583"
         id="path1279" />
      <path
         d="m 38.215479,59.838029 q 0.02716,0 0.02716,0.05821 0,0.06985 -0.104775,0.306565 -0.100894,0.236714 -0.310444,0.438503 -0.20567,0.201789 -0.508354,0.201789 -0.248356,0 -0.41522,-0.155222 -0.166864,-0.155223 -0.166864,-0.477309 0,-0.302684 0.1397,-0.597606 0.1397,-0.298804 0.364773,-0.48507 0.225072,-0.190148 0.465667,-0.190148 0.143581,0 0.240595,0.06597 0.100894,0.06209 0.100894,0.182386 0,0.13582 -0.155222,0.263878 -0.151342,0.128059 -0.395817,0.225073 -0.244475,0.09701 -0.504473,0.1397 -0.04657,0.178505 -0.04657,0.34925 0,0.225073 0.104776,0.349251 0.108655,0.124177 0.306564,0.124177 0.298803,0 0.48507,-0.21343 0.186267,-0.213431 0.310445,-0.48119 0.0078,-0.01552 0.02716,-0.05821 0.0194,-0.04657 0.03493,-0.04657 z m -0.34149,-0.609248 q 0,-0.06209 -0.06597,-0.09701 -0.06209,-0.03493 -0.147462,-0.03493 -0.147461,0 -0.28328,0.09701 -0.13582,0.09701 -0.228953,0.232834 -0.08925,0.135819 -0.116417,0.240594 0.178505,-0.0194 0.376414,-0.100894 0.197909,-0.08149 0.329848,-0.178506 0.135819,-0.09701 0.135819,-0.159103 z"
         style="font-size:3.88056px;stroke-width:0.264583"
         id="path1281" />
    </g>
    <g
       aria-label="Press"
       id="text1286"
       style="font-size:3.88056px;line-height:1.25;font-family:'Ink Free';-inkscape-font-specification:'Ink Free';stroke-width:0.264583">
      <path
         d="m 31.098569,73.047041 q 0,0.228953 -0.186267,0.395817 -0.186267,0.162984 -0.519995,0.310445 -0.120298,0.05433 -0.244476,0.100894 -0.124178,0.04657 -0.162983,0.05821 0.0194,0.473428 0.0194,0.807156 0,0.108656 0.02328,0.178506 0.02716,0.06597 0.02716,0.08537 0,0.04269 -0.04269,0.06985 -0.04269,0.03104 -0.08925,0.03104 -0.05821,0 -0.07373,-0.08149 0,-0.0078 -0.01164,-0.06985 -0.0078,-0.06209 -0.0078,-0.174625 0,-0.302684 -0.02328,-0.993423 -0.01164,-0.349251 -0.01164,-0.496712 0,-0.124178 0.0039,-0.228953 0.0039,-0.108656 0.0039,-0.147461 -0.244476,0.06597 -0.422981,0.135819 -0.05821,0.02716 -0.162984,0.08925 -0.04657,0.02716 -0.09313,0.05045 -0.04269,0.02328 -0.06597,0.02328 -0.03104,0 -0.05433,-0.02716 -0.02328,-0.02716 -0.02328,-0.06597 0,-0.05045 0.147461,-0.124178 0.147461,-0.07761 0.357012,-0.147461 0.21343,-0.06985 0.391936,-0.104775 0.20955,-0.03881 0.465667,-0.03881 0.353131,0 0.55492,0.09313 0.20179,0.08925 0.20179,0.271639 z m -0.178506,0.03104 q 0,-0.131939 -0.166864,-0.186266 -0.166864,-0.05433 -0.41134,-0.05433 -0.178505,0 -0.364772,0.02328 -0.0039,0.03104 -0.01164,0.143581 -0.0039,0.112536 -0.0039,0.213431 l 0.0039,0.28328 q 0.0039,0.09313 0.0039,0.236715 0.08149,-0.0078 0.345369,-0.116417 0.256117,-0.112536 0.430743,-0.248356 0.174625,-0.1397 0.174625,-0.294923 z"
         style="font-size:3.88056px;stroke-width:0.264583"
         id="path1288" />
      <path
         d="m 32.743925,73.291516 q 0,0.03493 -0.05045,0.08149 -0.04657,0.04269 -0.08149,0.04269 -0.02716,0 -0.05433,-0.02328 -0.02328,-0.02328 -0.05433,-0.06597 -0.02716,-0.0388 -0.07373,-0.06597 -0.04269,-0.02716 -0.08925,-0.02716 -0.112536,0 -0.302684,0.298803 -0.190147,0.294922 -0.372534,0.745067 0.0039,0.08925 0.01164,0.225073 0.01164,0.135819 0.01552,0.201789 l 0.01164,0.155222 q 0,0.05433 -0.02328,0.09313 -0.02328,0.04269 -0.08537,0.04269 -0.06597,0 -0.08537,-0.174625 -0.0194,-0.178506 -0.02328,-0.516115 -0.0039,-0.08537 -0.0078,-0.244475 0,-0.159103 -0.0078,-0.380295 -0.01164,-0.333728 -0.01164,-0.477309 0,-0.08925 0.108655,-0.08925 0.06597,0 0.07761,0.05821 0.01552,0.05433 0.01552,0.213431 v 0.617009 q 0.116417,-0.298803 0.252236,-0.516115 0.13582,-0.217311 0.263878,-0.329847 0.131939,-0.116417 0.232834,-0.116417 0.08537,0 0.162983,0.0388 0.07761,0.03881 0.124178,0.100895 0.04657,0.05821 0.04657,0.112536 z"
         style="font-size:3.88056px;stroke-width:0.264583"
         id="path1290" />
      <path
         d="m 34.486295,73.935689 q 0.02716,0 0.02716,0.05821 0,0.06985 -0.104775,0.306564 -0.100895,0.236714 -0.310445,0.438503 -0.20567,0.201789 -0.508354,0.201789 -0.248355,0 -0.415219,-0.155222 -0.166864,-0.155223 -0.166864,-0.477309 0,-0.302684 0.1397,-0.597606 0.1397,-0.298803 0.364772,-0.48507 0.225073,-0.190148 0.465667,-0.190148 0.143581,0 0.240595,0.06597 0.100895,0.06209 0.100895,0.182386 0,0.13582 -0.155223,0.263878 -0.151341,0.128059 -0.395817,0.225073 -0.244475,0.09701 -0.504473,0.1397 -0.04657,0.178506 -0.04657,0.34925 0,0.225073 0.104775,0.349251 0.108656,0.124177 0.306564,0.124177 0.298803,0 0.48507,-0.21343 0.186267,-0.213431 0.310445,-0.48119 0.0078,-0.01552 0.02716,-0.05821 0.0194,-0.04657 0.03493,-0.04657 z m -0.341489,-0.609248 q 0,-0.06209 -0.06597,-0.09701 -0.06209,-0.03493 -0.147461,-0.03493 -0.147462,0 -0.283281,0.09701 -0.13582,0.09701 -0.228953,0.232834 -0.08925,0.135819 -0.116417,0.240595 0.178506,-0.0194 0.376414,-0.100895 0.197909,-0.08149 0.329848,-0.178506 0.13582,-0.09701 0.13582,-0.159103 z"
         style="font-size:3.88056px;stroke-width:0.264583"
         id="path1292" />
      <path
         d="m 36.21702,74.381954 q 0,0.170744 -0.139701,0.329847 -0.135819,0.155223 -0.360892,0.248356 -0.225072,0.09701 -0.469547,0.09701 -0.166865,0 -0.225073,-0.03104 -0.05821,-0.03104 -0.05821,-0.08537 0,-0.03493 0.08925,-0.120297 0.08925,-0.08925 0.120297,-0.08925 0.04657,0 0.04657,0.0194 0,0.01552 -0.0194,0.03104 -0.0194,0.01552 -0.0194,0.02716 0,0.01552 0.04657,0.03105 0.05045,0.01552 0.120297,0.01552 0.162984,0 0.325967,-0.05821 0.166864,-0.06209 0.271639,-0.159103 0.104775,-0.09701 0.104775,-0.205669 0,-0.104775 -0.06597,-0.166864 -0.06597,-0.06209 -0.166864,-0.08925 -0.09701,-0.03104 -0.329848,-0.08537 -0.256117,-0.05821 -0.399697,-0.100895 -0.139701,-0.04657 -0.225073,-0.112536 -0.08537,-0.06985 -0.08537,-0.174625 0,-0.186267 0.182386,-0.34149 0.182386,-0.155222 0.419101,-0.244475 0.236714,-0.08925 0.364772,-0.08925 0.131939,0 0.131939,0.07761 0,0.04657 -0.03104,0.104775 -0.03105,0.05433 -0.09313,0.05433 -0.02328,0 -0.05045,-0.01552 -0.02716,-0.0194 -0.05433,-0.0194 -0.07761,0 -0.244475,0.05045 -0.166864,0.05045 -0.302684,0.151341 -0.135819,0.100895 -0.135819,0.244476 0,0.09313 0.104775,0.1397 0.108655,0.04269 0.399697,0.108655 0.03493,0.01164 0.06985,0.0194 0.03493,0.0039 0.06209,0.01164 0.298803,0.06985 0.457906,0.159103 0.159103,0.08925 0.159103,0.267759 z"
         style="font-size:3.88056px;stroke-width:0.264583"
         id="path1294" />
      <path
         d="m 37.943868,74.381954 q 0,0.170744 -0.1397,0.329847 -0.13582,0.155223 -0.360893,0.248356 -0.225072,0.09701 -0.469547,0.09701 -0.166864,0 -0.225073,-0.03104 -0.05821,-0.03104 -0.05821,-0.08537 0,-0.03493 0.08925,-0.120297 0.08925,-0.08925 0.120297,-0.08925 0.04657,0 0.04657,0.0194 0,0.01552 -0.0194,0.03104 -0.0194,0.01552 -0.0194,0.02716 0,0.01552 0.04657,0.03105 0.05045,0.01552 0.120297,0.01552 0.162984,0 0.325967,-0.05821 0.166864,-0.06209 0.271639,-0.159103 0.104776,-0.09701 0.104776,-0.205669 0,-0.104775 -0.06597,-0.166864 -0.06597,-0.06209 -0.166864,-0.08925 -0.09701,-0.03104 -0.329848,-0.08537 -0.256117,-0.05821 -0.399697,-0.100895 -0.1397,-0.04657 -0.225073,-0.112536 -0.08537,-0.06985 -0.08537,-0.174625 0,-0.186267 0.182386,-0.34149 0.182387,-0.155222 0.419101,-0.244475 0.236714,-0.08925 0.364772,-0.08925 0.131939,0 0.131939,0.07761 0,0.04657 -0.03104,0.104775 -0.03104,0.05433 -0.09313,0.05433 -0.02328,0 -0.05045,-0.01552 -0.02716,-0.0194 -0.05433,-0.0194 -0.07761,0 -0.244475,0.05045 -0.166864,0.05045 -0.302684,0.151341 -0.135819,0.100895 -0.135819,0.244476 0,0.09313 0.104775,0.1397 0.108656,0.04269 0.399698,0.108655 0.03492,0.01164 0.06985,0.0194 0.03493,0.0039 0.06209,0.01164 0.298803,0.06985 0.457906,0.159103 0.159103,0.08925 0.159103,0.267759 z"
         style="font-size:3.88056px;stroke-width:0.264583"
         id="path1296" />
    </g>
    <g
       aria-label="Glide"
       id="text1301"
       style="font-size:3.88056px;line-height:1.25;font-family:'Ink Free';-inkscape-font-specification:'Ink Free';stroke-width:0.264583">
      <path
         d="m 31.661455,89.735248 q 0.0078,0.131939 0.02716,0.186267 0.0194,0.05821 0.04269,0.08149 0.02328,0.02716 0.02328,0.04657 0,0.02716 -0.03104,0.04269 -0.02716,0.01552 -0.06209,0.01552 -0.08537,0 -0.143581,-0.05045 -0.05433,-0.04657 -0.05433,-0.1397 0,-0.488951 0.0078,-0.799396 l 0.0078,-0.345369 q 0.01164,-0.360893 0.01164,-0.539398 -0.388056,0.865365 -0.760589,1.303868 -0.372534,0.442384 -0.834321,0.442384 -0.341489,0 -0.500592,-0.209551 -0.159103,-0.20955 -0.159103,-0.651934 0,-0.593725 0.267759,-1.160287 0.267758,-0.570442 0.686859,-0.927454 0.422981,-0.357011 0.853723,-0.357011 0.13582,0 0.182386,0.08537 0.05045,0.08537 0.05045,0.178506 0,0.09701 -0.0194,0.155222 -0.01552,0.05433 -0.03881,0.05433 -0.0194,0 -0.03104,-0.03493 -0.0078,-0.03493 -0.0194,-0.124178 -0.01164,-0.08537 -0.03881,-0.124178 -0.02716,-0.04269 -0.09701,-0.04269 -0.357011,0 -0.737306,0.34925 -0.376414,0.349251 -0.628651,0.884768 -0.248356,0.531637 -0.248356,1.03999 0,0.322086 0.104776,0.500592 0.108655,0.182387 0.388055,0.182387 0.302684,0 0.562682,-0.236715 0.259997,-0.236714 0.461786,-0.582084 0.20567,-0.34925 0.48507,-0.923573 -0.197908,0.03881 -0.55492,0.155223 -0.151342,0.05045 -0.151342,0.05045 l -0.14358,0.04657 q -0.143581,0.05045 -0.232834,0.07761 -0.08925,0.02328 -0.147461,0.02328 -0.03881,0 -0.06209,-0.03493 -0.0194,-0.03881 -0.0194,-0.08149 0,-0.05433 0.159103,-0.108655 0.159103,-0.05821 0.477309,-0.128059 0.124178,-0.02716 0.357011,-0.09313 0.03881,-0.01164 0.232834,-0.06209 0.197909,-0.05045 0.27552,-0.05045 0.0078,0 0.04269,0 0.0388,0 0.05433,0.03105 0.01552,0.02716 0.01552,0.08925 0,0.03493 -0.04657,0.06209 l -0.0039,0.298803 q -0.01164,0.302684 -0.01164,0.659695 v 0.55104 z"
         style="stroke-width:0.264583"
         id="path1331" />
      <path
         d="m 32.491889,89.265701 q 0,0.0388 -0.05045,0.06209 -0.05045,0.02328 -0.112537,0.02328 -0.04657,0 -0.08925,-0.108656 -0.03881,-0.112536 -0.03881,-0.337608 0.0039,-0.438504 0.01164,-1.059393 0.01164,-0.62089 0.0194,-0.935215 0.0039,-0.112536 0.03881,-0.20955 0.03881,-0.09701 0.131939,-0.09701 0.03104,0 0.03881,0.03492 0.01164,0.03104 0.01164,0.124178 0,0.0039 -0.0039,0.02716 0,0.0194 0,0.07373 -0.06985,1.020587 -0.06985,1.990727 0,0.124178 0.05433,0.263878 0.05821,0.139701 0.05821,0.147462 z"
         style="stroke-width:0.264583"
         id="path1333" />
      <path
         d="m 33.147699,86.941245 q 0,0.05821 -0.128058,0.05821 -0.06597,0 -0.13582,-0.05433 -0.06597,-0.05433 -0.06597,-0.08925 0,-0.04269 0.0388,-0.08149 0.04269,-0.03881 0.08537,-0.03881 0,0 0.02716,0.01164 0.03105,0.0078 0.06985,0.05045 0.03104,0.03104 0.06985,0.08149 0.03881,0.05045 0.03881,0.06209 z m 0.09701,2.440872 q 0,0.03881 -0.03492,0.05821 -0.03104,0.02328 -0.07373,0.0194 -0.05433,-0.0039 -0.08149,-0.174626 -0.02328,-0.170744 -0.05045,-0.648053 -0.01552,-0.314325 -0.02716,-0.613129 -0.01164,-0.302683 -0.01552,-0.465667 0,-0.04269 0.01164,-0.06209 0.01552,-0.02328 0.05433,-0.02328 0.08925,0 0.112536,0.07373 0.02328,0.07373 0.02328,0.28328 l -0.0039,0.457907 q 0,0.391936 0.02328,0.62865 0,0.01164 0.03493,0.248356 0.02716,0.162984 0.02716,0.217311 z"
         style="stroke-width:0.264583"
         id="path1335" />
      <path
         d="m 35.126779,86.716173 q 0,0.07761 -0.0078,0.306564 -0.0078,0.225072 -0.0078,0.454026 0,0.442383 0.0194,0.90417 0.0194,0.457906 0.03104,0.601487 0,0.02328 0.0039,0.05045 0.0039,0.02716 0.0078,0.05045 0.01552,0.108656 0.01552,0.131939 0,0.03881 -0.05821,0.07373 -0.05433,0.03493 -0.08537,0.03493 -0.04269,0 -0.05821,-0.03104 -0.01164,-0.03493 -0.01164,-0.09313 0,-0.213431 0.01164,-0.446264 l 0.0039,-0.217312 q 0,-0.108655 -0.0039,-0.28328 -0.0039,-0.178506 -0.01164,-0.298804 -0.197908,0.636412 -0.450145,1.055513 -0.248356,0.41522 -0.539398,0.41522 -0.131939,0 -0.225072,-0.124178 -0.08925,-0.124178 -0.08925,-0.357012 0,-0.306564 0.20567,-0.667456 0.20955,-0.360892 0.473428,-0.62089 0.267759,-0.259997 0.395817,-0.259997 0.124178,0 0.124178,0.08149 0,0.05433 -0.03881,0.128058 -0.03493,0.06985 -0.08149,0.128058 -0.04269,0.05821 -0.05045,0.05821 -0.0078,0 -0.0194,-0.0039 -0.0078,-0.0078 -0.0078,-0.01552 0,-0.0194 0.0194,-0.06597 0.0194,-0.04657 0.0194,-0.06209 0,-0.0194 -0.0039,-0.02716 -0.0039,-0.0078 -0.02328,-0.0078 -0.08149,0 -0.294922,0.225072 -0.209551,0.221192 -0.376415,0.527756 -0.166864,0.306564 -0.166864,0.570442 0,0.09313 0.03881,0.174626 0.03881,0.08149 0.128058,0.08149 0.283281,0 0.523876,-0.477308 0.244475,-0.48119 0.422981,-1.090438 l -0.0078,-0.325967 q -0.01164,-0.430742 -0.01164,-0.457906 0,-0.232833 0.0194,-0.333728 0.0078,-0.03881 0.01552,-0.05433 0.01164,-0.01552 0.04269,-0.01552 0.03881,0 0.07761,0.02716 0.03881,0.02328 0.03881,0.06597 z"
         style="stroke-width:0.264583"
         id="path1337" />
      <path
         d="m 37.04765,88.380933 q 0.02716,0 0.02716,0.05821 0,0.06985 -0.104775,0.306565 -0.100895,0.236714 -0.310445,0.438503 -0.20567,0.201789 -0.508353,0.201789 -0.248356,0 -0.41522,-0.155222 -0.166864,-0.155223 -0.166864,-0.477309 0,-0.302684 0.1397,-0.597606 0.1397,-0.298804 0.364772,-0.48507 0.225073,-0.190148 0.465668,-0.190148 0.14358,0 0.240594,0.06597 0.100895,0.06209 0.100895,0.182386 0,0.13582 -0.155223,0.263878 -0.151341,0.128058 -0.395817,0.225072 -0.244475,0.09701 -0.504472,0.139701 -0.04657,0.178505 -0.04657,0.34925 0,0.225072 0.104775,0.34925 0.108656,0.124178 0.306564,0.124178 0.298803,0 0.48507,-0.21343 0.186267,-0.213431 0.310445,-0.48119 0.0078,-0.01552 0.02716,-0.05821 0.0194,-0.04657 0.03492,-0.04657 z m -0.341489,-0.609248 q 0,-0.06209 -0.06597,-0.09701 -0.06209,-0.03493 -0.147461,-0.03493 -0.147461,0 -0.283281,0.09701 -0.13582,0.09701 -0.228953,0.232834 -0.08925,0.135819 -0.116417,0.240594 0.178506,-0.0194 0.376414,-0.100894 0.197909,-0.08149 0.329848,-0.178506 0.13582,-0.09701 0.13582,-0.159103 z"
         style="stroke-width:0.264583"
         id="path1339" />
    </g>
    <g
       aria-label="Slide"
       id="text1305"
       style="font-size:3.88056px;line-height:1.25;font-family:'Ink Free';-inkscape-font-specification:'Ink Free';stroke-width:0.264583"
       transform="translate(-0.06614583,0.396875)">
      <path
         d="m 31.80201,103.11644 q 0,0.19403 -0.131939,0.38418 -0.128058,0.18626 -0.364772,0.30268 -0.232834,0.1203 -0.531637,0.1203 -0.252237,0 -0.399698,-0.0427 -0.147461,-0.0388 -0.147461,-0.11253 0,-0.0388 0.05433,-0.12806 0.05821,-0.0931 0.08925,-0.0931 0.04657,0 0.04657,0.0194 0,0.0116 -0.01552,0.0272 -0.01164,0.0155 -0.01164,0.031 0,0.0116 0.04657,0.0349 0.05045,0.0233 0.151342,0.0427 0.100895,0.0194 0.244475,0.0194 0.228953,0 0.399698,-0.0893 0.174625,-0.0893 0.267759,-0.22508 0.09313,-0.13582 0.09313,-0.26387 0,-0.16687 -0.162984,-0.28717 -0.159102,-0.12029 -0.516114,-0.22895 -0.34537,-0.11253 -0.535517,-0.18627 -0.186267,-0.0776 -0.302684,-0.18626 -0.116417,-0.11254 -0.116417,-0.27164 0,-0.21343 0.240595,-0.4191 0.240595,-0.20955 0.593726,-0.33761 0.353131,-0.13194 0.655814,-0.13194 0.155223,0 0.166864,0.0621 0.01164,0.0621 0.01164,0.1397 0,0.0582 -0.04269,0.0582 -0.0194,0 -0.04657,-0.0116 -0.02328,-0.0155 -0.04269,-0.0233 -0.02328,-0.008 -0.05433,-0.0155 -0.03104,-0.008 -0.08925,-0.008 -0.201789,0 -0.48507,0.10477 -0.283281,0.10478 -0.492831,0.26 -0.205669,0.15522 -0.205669,0.29881 0,0.11641 0.09313,0.20178 0.09701,0.0854 0.256117,0.14747 0.159103,0.0582 0.450145,0.14746 0.426861,0.12417 0.628651,0.2794 0.205669,0.15522 0.205669,0.38029 z"
         style="stroke-width:0.264583"
         id="path1320" />
      <path
         d="m 32.527672,103.69076 q 0,0.0388 -0.05045,0.0621 -0.05045,0.0233 -0.112537,0.0233 -0.04657,0 -0.08925,-0.10866 -0.03881,-0.11253 -0.03881,-0.33761 0.0039,-0.4385 0.01164,-1.05939 0.01164,-0.62089 0.0194,-0.93522 0.0039,-0.11253 0.03881,-0.20955 0.03881,-0.097 0.131939,-0.097 0.03104,0 0.03881,0.0349 0.01164,0.031 0.01164,0.12417 0,0.004 -0.0039,0.0272 0,0.0194 0,0.0737 -0.06985,1.02059 -0.06985,1.99073 0,0.12417 0.05433,0.26387 0.05821,0.1397 0.05821,0.14746 z"
         style="stroke-width:0.264583"
         id="path1322" />
      <path
         d="m 33.183482,101.36631 q 0,0.0582 -0.128058,0.0582 -0.06597,0 -0.13582,-0.0543 -0.06597,-0.0543 -0.06597,-0.0892 0,-0.0427 0.03881,-0.0815 0.04269,-0.0388 0.08537,-0.0388 0,0 0.02716,0.0116 0.03104,0.008 0.06985,0.0504 0.03104,0.031 0.06985,0.0815 0.0388,0.0504 0.0388,0.0621 z m 0.09701,2.44087 q 0,0.0388 -0.03493,0.0582 -0.03104,0.0233 -0.07373,0.0194 -0.05433,-0.004 -0.08149,-0.17462 -0.02328,-0.17075 -0.05045,-0.64806 -0.01552,-0.31432 -0.02716,-0.61312 -0.01164,-0.30269 -0.01552,-0.46567 0,-0.0427 0.01164,-0.0621 0.01552,-0.0233 0.05433,-0.0233 0.08925,0 0.112536,0.0737 0.02328,0.0737 0.02328,0.28328 l -0.0039,0.4579 q 0,0.39194 0.02328,0.62865 0,0.0117 0.03493,0.24836 0.02716,0.16298 0.02716,0.21731 z"
         style="stroke-width:0.264583"
         id="path1324" />
      <path
         d="m 35.162562,101.14124 q 0,0.0776 -0.0078,0.30656 -0.0078,0.22507 -0.0078,0.45403 0,0.44238 0.0194,0.90417 0.0194,0.4579 0.03104,0.60148 0,0.0233 0.0039,0.0504 0.0039,0.0272 0.0078,0.0504 0.01552,0.10865 0.01552,0.13194 0,0.0388 -0.05821,0.0737 -0.05433,0.0349 -0.08537,0.0349 -0.04269,0 -0.05821,-0.031 -0.01164,-0.0349 -0.01164,-0.0931 0,-0.21344 0.01164,-0.44627 l 0.0039,-0.21731 q 0,-0.10866 -0.0039,-0.28328 -0.0039,-0.17851 -0.01164,-0.2988 -0.197908,0.63641 -0.450145,1.05551 -0.248356,0.41522 -0.539398,0.41522 -0.131939,0 -0.225072,-0.12418 -0.08925,-0.12418 -0.08925,-0.35701 0,-0.30657 0.20567,-0.66746 0.20955,-0.36089 0.473428,-0.62089 0.267759,-0.26 0.395817,-0.26 0.124178,0 0.124178,0.0815 0,0.0543 -0.03881,0.12806 -0.03492,0.0699 -0.08149,0.12805 -0.04269,0.0582 -0.05045,0.0582 -0.0078,0 -0.0194,-0.004 -0.0078,-0.008 -0.0078,-0.0155 0,-0.0194 0.0194,-0.066 0.0194,-0.0466 0.0194,-0.0621 0,-0.0194 -0.0039,-0.0272 -0.0039,-0.008 -0.02328,-0.008 -0.08149,0 -0.294922,0.22507 -0.209551,0.22119 -0.376415,0.52775 -0.166864,0.30657 -0.166864,0.57045 0,0.0931 0.03881,0.17462 0.0388,0.0815 0.128058,0.0815 0.283281,0 0.523876,-0.47731 0.244475,-0.48118 0.422981,-1.09043 l -0.0078,-0.32597 q -0.01164,-0.43074 -0.01164,-0.45791 0,-0.23283 0.0194,-0.33372 0.0078,-0.0388 0.01552,-0.0543 0.01164,-0.0155 0.04269,-0.0155 0.03881,0 0.07761,0.0272 0.03881,0.0233 0.03881,0.066 z"
         style="stroke-width:0.264583"
         id="path1326" />
      <path
         d="m 37.083433,102.806 q 0.02716,0 0.02716,0.0582 0,0.0699 -0.104775,0.30656 -0.100895,0.23671 -0.310445,0.4385 -0.205669,0.20179 -0.508353,0.20179 -0.248356,0 -0.41522,-0.15522 -0.166864,-0.15522 -0.166864,-0.47731 0,-0.30268 0.1397,-0.59761 0.1397,-0.2988 0.364773,-0.48507 0.225072,-0.19014 0.465667,-0.19014 0.143581,0 0.240595,0.066 0.100894,0.0621 0.100894,0.18238 0,0.13582 -0.155222,0.26388 -0.151342,0.12806 -0.395817,0.22507 -0.244476,0.097 -0.504473,0.1397 -0.04657,0.17851 -0.04657,0.34925 0,0.22508 0.104775,0.34925 0.108656,0.12418 0.306565,0.12418 0.298803,0 0.485069,-0.21343 0.186267,-0.21343 0.310445,-0.48119 0.0078,-0.0155 0.02716,-0.0582 0.0194,-0.0466 0.03493,-0.0466 z m -0.341489,-0.60925 q 0,-0.0621 -0.06597,-0.097 -0.06209,-0.0349 -0.147461,-0.0349 -0.147461,0 -0.283281,0.097 -0.135819,0.097 -0.228953,0.23284 -0.08925,0.13582 -0.116417,0.24059 0.178506,-0.0194 0.376415,-0.10089 0.197908,-0.0815 0.329847,-0.17851 0.13582,-0.097 0.13582,-0.1591 z"
         style="stroke-width:0.264583"
         id="path1328" />
    </g>
    <g
       aria-label="Lift"
       id="text1309"
       style="font-size:3.88056px;line-height:1.25;font-family:'Ink Free';-inkscape-font-specification:'Ink Free';stroke-width:0.264583">
      <path
         d="m 32.181884,117.92014 q 0,0.0504 -0.04657,0.0815 -0.04269,0.031 -0.104776,0.0349 l -0.667456,0.0504 -0.461787,0.0388 -0.240594,0.0194 q -0.03104,0 -0.05821,-0.0388 -0.02328,-0.0388 -0.02328,-0.0737 0,-0.0272 0.01552,-0.0388 0.0194,-0.0155 0.03881,-0.0194 0.02328,-0.008 0.03104,-0.0116 0.0039,-0.20955 0.0039,-0.9779 0,-0.56656 -0.04657,-0.877 -0.04269,-0.31433 -0.04269,-0.33761 0,-0.0543 0.03881,-0.0854 0.04269,-0.031 0.08537,-0.031 0.02716,0 0.04269,0.0233 0.01552,0.0194 0.02328,0.066 0.03881,0.13194 0.05821,0.48507 0.02328,0.35313 0.02328,0.73731 0,0.32597 -0.0039,0.60537 -0.0039,0.2794 -0.0039,0.37641 0.05045,-0.004 0.194028,-0.0116 0.143581,-0.0116 0.294923,-0.0233 0.225072,-0.0272 0.508353,-0.0815 0.228953,-0.0427 0.27552,-0.0427 0.04269,0 0.05433,0.0388 0.01164,0.0388 0.01164,0.0931 z"
         style="stroke-width:0.264583"
         id="path1311" />
      <path
         d="m 32.771725,115.77807 q 0,0.0582 -0.128059,0.0582 -0.06597,0 -0.135819,-0.0543 -0.06597,-0.0543 -0.06597,-0.0892 0,-0.0427 0.03881,-0.0815 0.04269,-0.0388 0.08537,-0.0388 0,0 0.02716,0.0116 0.03104,0.008 0.06985,0.0504 0.03104,0.031 0.06985,0.0815 0.03881,0.0504 0.03881,0.0621 z m 0.09701,2.44087 q 0,0.0388 -0.03493,0.0582 -0.03104,0.0233 -0.07373,0.0194 -0.05433,-0.004 -0.08149,-0.17462 -0.02328,-0.17075 -0.05045,-0.64806 -0.01552,-0.31432 -0.02716,-0.61313 -0.01164,-0.30268 -0.01552,-0.46566 0,-0.0427 0.01164,-0.0621 0.01552,-0.0233 0.05433,-0.0233 0.08925,0 0.112536,0.0737 0.02328,0.0737 0.02328,0.28328 l -0.0039,0.4579 q 0,0.39194 0.02328,0.62865 0,0.0116 0.03493,0.24836 0.02716,0.16298 0.02716,0.21731 z"
         style="stroke-width:0.264583"
         id="path1313" />
      <path
         d="m 34.906027,115.73926 q 0,0.0466 -0.02328,0.12418 -0.0194,0.0737 -0.04657,0.0737 -0.02716,0 -0.04269,-0.0233 -0.01164,-0.0272 -0.02328,-0.0698 -0.04269,-0.13194 -0.131939,-0.22119 -0.08537,-0.0931 -0.186267,-0.0931 -0.27164,0 -0.391937,0.36866 -0.116417,0.36477 -0.116417,0.8576 0.116417,-0.008 0.259998,-0.0349 0.147461,-0.031 0.194028,-0.0388 0.27552,-0.0582 0.364772,-0.0582 0.07761,0 0.07761,0.0698 0,0.0543 -0.02328,0.11642 -0.02328,0.0621 -0.06985,0.0621 -0.0388,0 -0.07761,-0.0155 -0.05433,-0.0233 -0.147461,-0.0233 -0.06209,0 -0.256117,0.0388 l -0.310445,0.0466 q 0,0.097 0.02328,0.5394 0.03881,0.68298 0.03881,1.09044 0,0.0737 -0.01552,0.10089 -0.01552,0.031 -0.06209,0.031 -0.05433,0 -0.08149,-0.0621 -0.02716,-0.0621 -0.02716,-0.1397 0,-0.44627 -0.05821,-1.40088 l -0.0078,-0.12418 q -0.03104,0.004 -0.20179,0.0349 -0.166864,0.0311 -0.244475,0.0311 -0.04269,0 -0.07373,-0.0194 -0.02716,-0.0194 -0.02716,-0.0582 0,-0.097 0.06985,-0.1009 0.100894,-0.004 0.244475,-0.0155 0.143581,-0.0155 0.221192,-0.031 0,-0.63641 0.170745,-1.03222 0.174625,-0.3997 0.516114,-0.3997 0.124178,0 0.228953,0.0621 0.108656,0.0621 0.170745,0.15134 0.06597,0.0893 0.06597,0.16298 z"
         style="stroke-width:0.264583"
         id="path1315" />
      <path
         d="m 36.71048,116.60075 q 0,0.066 -0.05821,0.10089 -0.05433,0.0349 -0.201789,0.0543 -0.357012,0.0621 -0.399698,0.0698 l -0.252236,0.0427 q 0,0.20178 0.0039,0.42298 0.0078,0.22119 0.0194,0.38805 0.01552,0.22507 0.05433,0.34537 0.03881,0.1203 0.04269,0.13582 0,0.0388 -0.05045,0.0699 -0.04657,0.0349 -0.08925,0.0349 -0.02328,0 -0.03881,-0.0155 -0.01552,-0.0116 -0.02716,-0.0427 -0.02328,-0.0543 -0.04657,-0.20179 -0.0194,-0.14746 -0.03104,-0.32597 -0.01164,-0.1591 -0.0194,-0.36865 -0.0039,-0.21343 -0.0039,-0.41134 -0.217311,0.0349 -0.446265,0.0854 -0.205669,0.0427 -0.244475,0.0427 -0.04657,0 -0.08925,-0.0272 -0.03881,-0.0272 -0.03881,-0.0737 0,-0.0504 0.03493,-0.066 0.03493,-0.0155 0.116417,-0.0155 0.05821,0 0.170744,-0.0194 0.112536,-0.0233 0.143581,-0.031 0.259997,-0.0504 0.353131,-0.066 0,-0.0815 -0.0078,-0.21343 -0.0078,-0.1785 -0.0078,-0.27164 0,-0.15134 0.0078,-0.23283 0.01164,-0.0854 0.03881,-0.15134 0.03104,-0.0776 0.116417,-0.0776 0.03493,0 0.04657,0.0116 0.01164,0.0116 0.01164,0.0427 0,0.0233 -0.0194,0.13582 -0.0194,0.11253 -0.0194,0.2988 0,0.14358 0.0078,0.32209 l 0.0039,0.10477 q 0.174625,-0.0272 0.690739,-0.14358 0.03104,-0.008 0.05045,-0.0543 0.02328,-0.0466 0.04657,-0.0466 0.04269,0 0.08537,0.0504 0.04657,0.0466 0.04657,0.097 z"
         style="stroke-width:0.264583"
         id="path1317" />
    </g>
    <g
       aria-label="V/Oct"
       id="text1344"
       style="font-size:3.88056px;line-height:1.25;font-family:'Ink Free';-inkscape-font-specification:'Ink Free';stroke-width:0.264583">
      <path
         d="m 5.7758583,72.821544 q 0,0.01164 -0.062089,0.06597 -0.062089,0.05433 -0.1086557,0.151342 -0.050447,0.104775 -0.1047751,0.2794 -0.050447,0.174626 -0.1474613,0.523876 l -0.1086556,0.399698 q -0.1979086,0.717903 -0.2444753,1.012826 -0.011642,0.06597 -0.062089,0.108656 -0.050447,0.04657 -0.1513418,0.04657 -0.023283,0 -0.1668641,-0.325967 Q 4.4797513,74.754063 4.2507982,74.206904 4.1110981,73.880937 3.9675173,73.601536 3.8239366,73.318255 3.7734893,73.275569 q -0.06597,-0.05045 -0.06597,-0.108655 0,-0.02716 0.050447,-0.07373 0.054328,-0.04657 0.1086557,-0.04657 0.034925,0 0.050447,0.01552 0.015522,0.01164 0.042686,0.05045 0.050447,0.07373 0.1668641,0.322086 0.1164168,0.244476 0.2367142,0.535518 l 0.3182059,0.772231 q 0.1513418,0.357011 0.1746252,0.4191 0.00776,-0.07373 0.06985,-0.34925 0.06597,-0.27552 0.1552224,-0.62089 0.1319391,-0.500592 0.2134308,-0.787753 0.085372,-0.291042 0.159103,-0.461787 0.065969,-0.151342 0.1125362,-0.20567 0.046567,-0.05433 0.1047751,-0.05433 0.019403,0 0.062089,0.06209 0.042686,0.05821 0.042686,0.07761 z"
         style="stroke-width:0.264583"
         id="path1350" />
      <path
         d="m 7.0758397,72.371399 q 0,0.108656 -0.046567,0.267758 -0.062089,0.228954 -0.228953,0.737307 -0.228953,0.729545 -0.325967,1.059393 -0.1629835,0.5588 -0.2328336,0.977901 -0.019403,0.124178 -0.034925,0.170744 -0.011642,0.03881 -0.038806,0.06209 -0.027164,0.02328 -0.062089,0.02328 -0.019403,0 -0.031045,-0.0039 -0.046567,-0.01164 -0.046567,-0.147461 0,-0.151342 0.050447,-0.395817 0.050447,-0.244475 0.081492,-0.34537 0.081492,-0.287161 0.2134308,-0.686859 0.023283,-0.07373 0.089253,-0.2794 0.06985,-0.209551 0.1241779,-0.407459 0.023283,-0.07761 0.085372,-0.325967 l 0.1125363,-0.41134 q 0.058208,-0.205669 0.1202973,-0.360892 0.031045,-0.05821 0.085372,-0.05821 0.019403,0 0.031045,0.0039 0.054328,0.01552 0.054328,0.120298 z"
         style="stroke-width:0.264583"
         id="path1352" />
      <path
         d="m 9.7922253,73.601536 q 0,0.399698 -0.2250724,0.764471 -0.2250725,0.364772 -0.5782035,0.589845 -0.3531309,0.225072 -0.714023,0.225072 -0.2095502,0 -0.3958171,-0.08537 -0.1862669,-0.08925 -0.3026837,-0.259998 -0.1164168,-0.170744 -0.1164168,-0.411339 0,-0.411339 0.2134308,-0.849843 0.2134308,-0.442383 0.5937257,-0.830439 0.038806,-0.03493 0.073731,-0.04657 0.034925,-0.01164 0.081492,-0.01164 0.038806,0 0.073731,0.0194 0.038806,0.0194 0.038806,0.04657 0,0.01552 -0.015522,0.04657 -0.011642,0.02716 -0.015522,0.03493 0.023283,0 0.054328,-0.0039 0.034925,-0.0078 0.131939,-0.0078 0.1125363,0 0.3026837,0.0388 0.194028,0.03493 0.2832809,0.07373 0.2522364,0.112536 0.3841754,0.291042 0.131939,0.174625 0.131939,0.376414 z m -0.166864,0.08149 q 0,-0.225072 -0.1047752,-0.364773 -0.1047751,-0.14358 -0.3104447,-0.236714 -0.1125363,-0.05045 -0.2832809,-0.05045 -0.054328,0 -0.1474613,0.0078 l -0.1435807,0.0039 q -0.1862669,0 -0.1862669,-0.07761 0,-0.02716 0.00388,-0.05045 0.00388,-0.02328 0.00776,-0.03104 -0.081492,0 -0.131939,0.04657 -0.318206,0.329848 -0.4928312,0.702382 -0.1707446,0.372534 -0.1707446,0.725665 0,0.329847 0.1629835,0.481189 0.1668641,0.147461 0.4540255,0.147461 0.3259671,0 0.6364119,-0.186267 0.3143253,-0.186267 0.5083533,-0.48895 0.1979086,-0.302684 0.1979086,-0.628651 z"
         style="stroke-width:0.264583"
         id="path1354" />
      <path
         d="m 11.379373,74.338843 q 0,0.02328 -0.08149,0.14358 -0.07761,0.120298 -0.159103,0.217312 -0.201789,0.244475 -0.364772,0.376414 -0.159103,0.131939 -0.333728,0.131939 -0.147462,0 -0.244476,-0.128058 -0.09313,-0.128059 -0.09313,-0.294923 0,-0.248356 0.131939,-0.628651 0.131939,-0.380294 0.333728,-0.659695 0.201789,-0.2794 0.403578,-0.2794 0.08537,0 0.147462,0.06209 0.03492,0.03493 0.06597,0.09313 0.03105,0.05821 0.03105,0.104775 0,0.06597 -0.0194,0.155223 -0.01552,0.08537 -0.03492,0.08537 -0.03881,0 -0.05045,-0.04269 -0.01164,-0.04269 -0.01552,-0.108656 -0.01164,-0.100894 -0.02328,-0.131939 -0.01164,-0.03493 -0.03492,-0.03493 -0.182387,0 -0.353131,0.256117 -0.170745,0.252237 -0.279401,0.589845 -0.108655,0.333728 -0.108655,0.516115 0,0.256117 0.170744,0.256117 0.124178,0 0.225073,-0.06209 0.104775,-0.06209 0.217311,-0.174625 0.209551,-0.213431 0.325967,-0.368654 0.0078,-0.01164 0.04269,-0.05821 0.03881,-0.05045 0.05433,-0.05045 0.04657,0 0.04657,0.03493 z"
         style="stroke-width:0.264583"
         id="path1356" />
      <path
         d="m 13.362333,73.586014 q 0,0.06597 -0.05821,0.100895 -0.05433,0.03493 -0.20179,0.05433 -0.357011,0.06209 -0.399697,0.06985 l -0.252237,0.04269 q 0,0.201789 0.0039,0.422981 0.0078,0.221192 0.0194,0.388056 0.01552,0.225072 0.05433,0.34537 0.0388,0.120297 0.04269,0.135819 0,0.03881 -0.05045,0.06985 -0.04657,0.03493 -0.08925,0.03493 -0.02328,0 -0.03881,-0.01552 -0.01552,-0.01164 -0.02716,-0.04269 -0.02328,-0.05433 -0.04657,-0.201789 -0.0194,-0.147461 -0.03104,-0.325967 -0.01164,-0.159103 -0.0194,-0.368653 -0.0039,-0.213431 -0.0039,-0.41134 -0.217311,0.03493 -0.446264,0.08537 -0.20567,0.04269 -0.244475,0.04269 -0.04657,0 -0.08925,-0.02716 -0.03881,-0.02716 -0.03881,-0.07373 0,-0.05045 0.03493,-0.06597 0.03492,-0.01552 0.116417,-0.01552 0.05821,0 0.170745,-0.0194 0.112536,-0.02328 0.143581,-0.03105 0.259997,-0.05045 0.35313,-0.06597 0,-0.08149 -0.0078,-0.213431 -0.0078,-0.178506 -0.0078,-0.271639 0,-0.151342 0.0078,-0.232834 0.01164,-0.08537 0.03881,-0.151342 0.03104,-0.07761 0.116417,-0.07761 0.03493,0 0.04657,0.01164 0.01164,0.01164 0.01164,0.04269 0,0.02328 -0.0194,0.135819 -0.0194,0.112537 -0.0194,0.298804 0,0.14358 0.0078,0.322086 l 0.0039,0.104775 q 0.174625,-0.02716 0.69074,-0.143581 0.03104,-0.0078 0.05045,-0.05433 0.02328,-0.04657 0.04657,-0.04657 0.04269,0 0.08537,0.05045 0.04657,0.04657 0.04657,0.09701 z"
         style="stroke-width:0.264583"
         id="path1358" />
    </g>
    <g
       aria-label="Gate"
       id="text1348"
       style="font-size:3.88056px;line-height:1.25;font-family:'Ink Free';-inkscape-font-specification:'Ink Free';stroke-width:0.264583">
      <path
         d="m 6.8780888,103.91315 q 0.00776,0.13194 0.027164,0.18627 0.019403,0.0582 0.042686,0.0815 0.023283,0.0272 0.023283,0.0466 0,0.0272 -0.031045,0.0427 -0.027164,0.0155 -0.062089,0.0155 -0.085372,0 -0.1435807,-0.0504 -0.054328,-0.0466 -0.054328,-0.1397 0,-0.48895 0.00776,-0.7994 l 0.00776,-0.34537 q 0.011642,-0.36089 0.011642,-0.5394 -0.388056,0.86537 -0.7605898,1.30387 -0.3725337,0.44239 -0.8343203,0.44239 -0.3414893,0 -0.5005923,-0.20955 -0.1591029,-0.20955 -0.1591029,-0.65194 0,-0.59372 0.2677586,-1.16029 0.2677586,-0.57044 0.6868591,-0.92745 0.422981,-0.35701 0.8537232,-0.35701 0.1358196,0 0.1823863,0.0854 0.050447,0.0854 0.050447,0.17851 0,0.097 -0.019403,0.15522 -0.015522,0.0543 -0.038806,0.0543 -0.019403,0 -0.031044,-0.0349 -0.00776,-0.0349 -0.019403,-0.12418 -0.011642,-0.0854 -0.038806,-0.12417 -0.027164,-0.0427 -0.097014,-0.0427 -0.3570115,0 -0.7373064,0.34925 -0.3764143,0.34925 -0.6286507,0.88477 -0.2483558,0.53163 -0.2483558,1.03999 0,0.32208 0.1047751,0.50059 0.1086557,0.18239 0.388056,0.18239 0.3026837,0 0.5626812,-0.23672 0.2599975,-0.23671 0.4617866,-0.58208 0.2056697,-0.34925 0.48507,-0.92357 -0.1979086,0.0388 -0.5549201,0.15522 -0.1513418,0.0504 -0.1513418,0.0504 l -0.1435807,0.0466 q -0.1435807,0.0504 -0.2328336,0.0776 -0.089253,0.0233 -0.1474613,0.0233 -0.038806,0 -0.062089,-0.0349 -0.019403,-0.0388 -0.019403,-0.0815 0,-0.0543 0.159103,-0.10866 0.159103,-0.0582 0.4773089,-0.12805 0.1241779,-0.0272 0.3570115,-0.0931 0.038806,-0.0116 0.2328336,-0.0621 0.1979085,-0.0504 0.2755197,-0.0504 0.00776,0 0.042686,0 0.038806,0 0.054328,0.031 0.015522,0.0272 0.015522,0.0893 0,0.0349 -0.046567,0.0621 l -0.00388,0.29881 q -0.011642,0.30268 -0.011642,0.65969 v 0.55104 z"
         style="stroke-width:0.264583"
         id="path1361" />
      <path
         d="m 8.9386602,103.30002 q 0.00388,0.0272 0.031045,0.0582 0.027164,0.0272 0.027164,0.0466 0,0.0466 -0.038806,0.10865 -0.038806,0.0582 -0.077611,0.0582 -0.065969,0 -0.1008945,-0.0815 -0.034925,-0.0815 -0.034925,-0.19015 0,-0.0931 0.011642,-0.5588 l 0.00388,-0.14746 q 0,-0.0893 -0.046567,-0.12806 -0.1746252,0.29492 -0.325967,0.51224 -0.1513418,0.21731 -0.3841754,0.41134 -0.2328336,0.19014 -0.4889506,0.19014 -0.1241779,0 -0.194028,-0.0776 -0.065969,-0.0776 -0.065969,-0.20179 0,-0.15522 0.1397002,-0.42298 0.1397001,-0.27164 0.3570115,-0.54716 0.2173113,-0.2794 0.4346227,-0.4579 0.1435807,-0.11642 0.228953,-0.15523 0.085372,-0.0427 0.1513419,-0.0427 0.062089,0 0.1280584,0.0388 0.06597,0.0388 0.1125363,0.10866 0.046567,0.0699 0.046567,0.1591 0,0.1203 -0.065969,0.22895 l 0.065969,-0.0194 q 0.042686,0 0.050447,0.10478 0.00388,0.0621 0.00776,0.25223 0.00776,0.19015 0.011642,0.31433 0.00388,0.12806 0.00776,0.24835 0.00388,0.1203 0.00776,0.19015 z m -1.3698376,0.0699 q 0.2095502,0 0.4035782,-0.15522 0.194028,-0.15522 0.3453698,-0.36865 0.1552224,-0.21731 0.3414893,-0.53164 0.046567,-0.11642 0.046567,-0.25224 0,-0.0815 -0.050447,-0.1397 -0.046567,-0.0621 -0.1280584,-0.0621 -0.097014,0 -0.2483559,0.13194 -0.1746252,0.14746 -0.3686532,0.39582 -0.194028,0.24448 -0.3220864,0.48507 -0.1280585,0.2406 -0.1280585,0.3803 0,0.11641 0.1086557,0.11641 z"
         style="stroke-width:0.264583"
         id="path1363" />
      <path
         d="m 11.10401,101.94183 q 0,0.066 -0.05821,0.10089 -0.05433,0.0349 -0.201789,0.0543 -0.357012,0.0621 -0.399698,0.0699 l -0.252236,0.0427 q 0,0.20179 0.0039,0.42299 0.0078,0.22119 0.0194,0.38805 0.01552,0.22507 0.05433,0.34537 0.0388,0.1203 0.04269,0.13582 0,0.0388 -0.05045,0.0698 -0.04657,0.0349 -0.08925,0.0349 -0.02328,0 -0.03881,-0.0155 -0.01552,-0.0116 -0.02716,-0.0427 -0.02328,-0.0543 -0.04657,-0.20179 -0.0194,-0.14746 -0.03105,-0.32597 -0.01164,-0.1591 -0.0194,-0.36865 -0.0039,-0.21343 -0.0039,-0.41134 -0.2173116,0.0349 -0.4462646,0.0854 -0.2056697,0.0427 -0.2444753,0.0427 -0.046567,0 -0.089253,-0.0272 -0.038806,-0.0272 -0.038806,-0.0737 0,-0.0504 0.034925,-0.066 0.034925,-0.0155 0.1164168,-0.0155 0.058208,0 0.1707446,-0.0194 0.1125362,-0.0233 0.1435807,-0.031 0.2599975,-0.0504 0.3531312,-0.066 0,-0.0815 -0.00776,-0.21343 -0.00776,-0.1785 -0.00776,-0.27164 0,-0.15134 0.00776,-0.23283 0.011641,-0.0854 0.038805,-0.15134 0.03105,-0.0776 0.116417,-0.0776 0.03492,0 0.04657,0.0116 0.01164,0.0116 0.01164,0.0427 0,0.0233 -0.0194,0.13582 -0.0194,0.11253 -0.0194,0.2988 0,0.14358 0.0078,0.32209 l 0.0039,0.10477 q 0.174625,-0.0272 0.690739,-0.14358 0.03105,-0.008 0.05045,-0.0543 0.02328,-0.0466 0.04657,-0.0466 0.04269,0 0.08537,0.0504 0.04657,0.0466 0.04657,0.097 z"
         style="stroke-width:0.264583"
         id="path1365" />
      <path
         d="m 12.768768,102.55884 q 0.02716,0 0.02716,0.0582 0,0.0699 -0.104775,0.30657 -0.100895,0.23671 -0.310445,0.4385 -0.20567,0.20179 -0.508353,0.20179 -0.248356,0 -0.41522,-0.15522 -0.166864,-0.15522 -0.166864,-0.47731 0,-0.30268 0.1397,-0.59761 0.1397,-0.2988 0.364772,-0.48507 0.225073,-0.19014 0.465668,-0.19014 0.14358,0 0.240594,0.066 0.100895,0.0621 0.100895,0.18239 0,0.13582 -0.155223,0.26388 -0.151341,0.12806 -0.395817,0.22507 -0.244475,0.097 -0.504472,0.1397 -0.04657,0.17851 -0.04657,0.34925 0,0.22507 0.104775,0.34925 0.108656,0.12418 0.306564,0.12418 0.298803,0 0.48507,-0.21343 0.186267,-0.21343 0.310445,-0.48119 0.0078,-0.0155 0.02716,-0.0582 0.0194,-0.0466 0.03492,-0.0466 z m -0.341489,-0.60925 q 0,-0.0621 -0.06597,-0.097 -0.06209,-0.0349 -0.147461,-0.0349 -0.147461,0 -0.283281,0.097 -0.13582,0.097 -0.228953,0.23284 -0.08925,0.13582 -0.116417,0.24059 0.178506,-0.0194 0.376414,-0.10089 0.197909,-0.0815 0.329848,-0.17851 0.13582,-0.097 0.13582,-0.1591 z"
         style="stroke-width:0.264583"
         id="path1367" />
    </g>
    <g
       aria-label="Rotative"
       id="text78"
       style="font-size:3.88056px;line-height:1.25;font-family:'Ink Free';-inkscape-font-specification:'Ink Free';stroke-width:0.264583"
       transform="translate(0.91439933,-1.2555143)">
      <path
         d="m 5.5068777,62.812066 q 0,0.04657 -0.038806,0.112537 -0.038806,0.06597 -0.081492,0.06597 -0.038806,0 -0.073731,-0.01164 -0.034925,-0.01552 -0.1047751,-0.05433 Q 4.9635993,62.781022 4.5677822,62.645202 4.393157,62.586994 4.1525623,62.524905 3.9158481,62.458936 3.7800286,62.427891 l 0.027164,0.500592 q 0.00388,0.104775 0.027164,0.174625 0.023283,0.07373 0.023283,0.09313 0,0.04269 -0.042686,0.06985 -0.042686,0.03104 -0.089253,0.03104 -0.058208,0 -0.073731,-0.08149 0,-0.0078 -0.011642,-0.06985 -0.00776,-0.06209 -0.00776,-0.174626 0,-0.07373 -0.015522,-0.314325 -0.00388,-0.08149 -0.00776,-0.155222 -0.00388,-0.07761 -0.00388,-0.13582 -0.011642,-0.01164 -0.031045,-0.02716 -0.015522,-0.01552 -0.027164,-0.04269 -0.011642,-0.03493 -0.019403,-0.07373 -0.00776,-0.0388 -0.00776,-0.05821 0,-0.02716 0.015522,-0.04269 0.015522,-0.01552 0.046567,-0.03493 -0.023283,-0.97014 -0.023283,-1.10984 0,-0.124178 0.00388,-0.228953 0.00388,-0.104776 0.00388,-0.139701 -0.023283,0.0039 -0.1397002,0.0194 -0.1164168,0.01552 -0.1862669,0.03104 -0.2483558,0.05821 -0.3764143,0.112536 -0.131939,0.05045 -0.2522364,0.116417 -0.034925,0.02328 -0.06597,0.0388 -0.034925,0.01164 -0.06597,0.01164 -0.031045,0 -0.054328,-0.02716 -0.023283,-0.03104 -0.023283,-0.07373 0,-0.07373 0.2483558,-0.170744 0.2483558,-0.09701 0.5393978,-0.159103 0.1629836,-0.03493 0.41522,-0.05821 0.2522363,-0.02716 0.4695477,-0.02716 0.3725338,0 0.6325313,0.08149 0.263878,0.08149 0.3958171,0.228953 0.1358196,0.147462 0.1358196,0.337609 0,0.244475 -0.1397002,0.419101 -0.1397001,0.174625 -0.3725337,0.302683 -0.2289531,0.128059 -0.6247702,0.291042 -0.1008945,0.04657 -0.2017891,0.08537 -0.097014,0.03881 -0.131939,0.05433 0,0.02328 0.00388,0.03493 0.4191005,0.09313 0.8265593,0.213431 l 0.081492,0.02328 q 0.422981,0.128058 0.6247701,0.201789 0.2017891,0.06985 0.2017891,0.116416 z M 5.0450911,61.069695 q 0,-0.128058 -0.1125363,-0.236714 -0.1125362,-0.108656 -0.3414892,-0.174625 -0.2250725,-0.06985 -0.547159,-0.06985 -0.2405947,0 -0.3026836,0.0078 -0.00388,0.02716 -0.011642,0.128058 -0.00388,0.100895 -0.00388,0.201789 l 0.015522,0.62089 0.015522,0.481189 q 0.034925,-0.0039 0.1358196,-0.03493 0.1047751,-0.03493 0.1746252,-0.06597 0.4928311,-0.197909 0.7334258,-0.395817 0.2444753,-0.201789 0.2444753,-0.461787 z"
         style="stroke-width:0.264583"
         id="path91" />
      <path
         d="m 7.0164081,62.295952 q 0,0.151342 -0.1125362,0.34925 -0.1125362,0.197909 -0.3182059,0.34149 -0.2056697,0.1397 -0.4695478,0.1397 -0.2599975,0 -0.3841754,-0.143581 Q 5.6077649,62.83923 5.6077649,62.6258 q 0,-0.186267 0.065969,-0.461787 0.06985,-0.27552 0.194028,-0.492831 0.00776,-0.01552 0.062089,-0.112536 0.058208,-0.100895 0.1280584,-0.151342 0.06985,-0.05433 0.1474613,-0.05433 0.034925,0 0.062089,0.0194 0.031044,0.01552 0.031044,0.04269 0,0.0078 -0.023283,0.03881 -0.019403,0.02716 -0.031045,0.04269 -0.131939,0.159103 -0.2134308,0.314325 -0.1086557,0.197909 -0.1707446,0.391937 -0.058208,0.194028 -0.058208,0.422981 0,0.306564 0.3725337,0.306564 0.1746252,0 0.3220865,-0.100895 0.1513418,-0.100894 0.2405947,-0.244475 0.089253,-0.147461 0.089253,-0.267759 0,-0.135819 -0.089253,-0.236714 Q 6.6477549,61.981627 6.4925325,61.86909 6.391638,61.79536 6.3450713,61.748793 q -0.046567,-0.04657 -0.046567,-0.07761 0,-0.04657 0.06597,-0.07373 0.06597,-0.03104 0.1552224,-0.03104 0.050447,0 0.065969,0.0078 0.015522,0.0039 0.015522,0.0194 0,0.0078 -0.015522,0.02716 -0.011642,0.01552 -0.011642,0.02716 0,0.01164 0.077611,0.07761 0.1552224,0.128058 0.2599975,0.259997 0.1047751,0.131939 0.1047751,0.310445 z"
         style="stroke-width:0.264583"
         id="path93" />
      <path
         d="m 9.0498196,61.492676 q 0,0.06597 -0.058208,0.100895 -0.054328,0.03493 -0.2017891,0.05433 -0.3570115,0.06209 -0.3996977,0.06985 l -0.2522364,0.04269 q 0,0.201789 0.00388,0.422981 0.00776,0.221192 0.019403,0.388056 0.015522,0.225072 0.054328,0.34537 0.038806,0.120297 0.042686,0.135819 0,0.03881 -0.050447,0.06985 -0.046567,0.03492 -0.089253,0.03492 -0.023283,0 -0.038806,-0.01552 -0.015522,-0.01164 -0.027164,-0.04269 -0.023283,-0.05433 -0.046567,-0.201789 -0.019403,-0.147461 -0.031044,-0.325967 -0.011642,-0.159103 -0.019403,-0.368653 -0.00388,-0.213431 -0.00388,-0.41134 -0.2173113,0.03492 -0.4462644,0.08537 -0.2056696,0.04269 -0.2444752,0.04269 -0.046567,0 -0.089253,-0.02716 -0.038806,-0.02716 -0.038806,-0.07373 0,-0.05045 0.034925,-0.06597 0.034925,-0.01552 0.1164168,-0.01552 0.058208,0 0.1707447,-0.0194 0.1125362,-0.02328 0.1435807,-0.03104 0.2599975,-0.05045 0.3531309,-0.06597 0,-0.08149 -0.00776,-0.213431 -0.00776,-0.178506 -0.00776,-0.271639 0,-0.151342 0.00776,-0.232834 0.011642,-0.08537 0.038806,-0.151342 0.031045,-0.07761 0.1164168,-0.07761 0.034925,0 0.046567,0.01164 0.011642,0.01164 0.011642,0.04269 0,0.02328 -0.019403,0.135819 -0.019403,0.112537 -0.019403,0.298804 0,0.14358 0.00776,0.322086 l 0.00388,0.104775 q 0.1746252,-0.02716 0.6907397,-0.143581 0.031044,-0.0078 0.050447,-0.05433 0.023283,-0.04657 0.046567,-0.04657 0.042686,0 0.085372,0.05045 0.046567,0.04657 0.046567,0.09701 z"
         style="stroke-width:0.264583"
         id="path95" />
      <path
         d="m 10.854278,62.850872 q 0.0039,0.02716 0.03104,0.05821 0.02716,0.02716 0.02716,0.04657 0,0.04657 -0.0388,0.108656 -0.03881,0.05821 -0.07761,0.05821 -0.06597,0 -0.100895,-0.08149 -0.03493,-0.08149 -0.03493,-0.190148 0,-0.09313 0.01164,-0.558801 l 0.0039,-0.147461 q 0,-0.08925 -0.04657,-0.128058 -0.174625,0.294922 -0.325967,0.512234 -0.151341,0.217311 -0.384175,0.411339 -0.2328336,0.190147 -0.4889506,0.190147 -0.1241779,0 -0.194028,-0.07761 -0.065969,-0.07761 -0.065969,-0.201789 0,-0.155222 0.1397002,-0.422981 0.1397001,-0.271639 0.3570115,-0.547159 0.2173113,-0.2794 0.4346229,-0.457906 0.143581,-0.116417 0.228953,-0.155222 0.08537,-0.04269 0.151342,-0.04269 0.06209,0 0.128059,0.03881 0.06597,0.03881 0.112536,0.108656 0.04657,0.06985 0.04657,0.159103 0,0.120297 -0.06597,0.228953 l 0.06597,-0.0194 q 0.04269,0 0.05045,0.104775 0.0039,0.06209 0.0078,0.252236 0.0078,0.190148 0.01164,0.314326 0.0039,0.128058 0.0078,0.248356 0.0039,0.120297 0.0078,0.190147 z m -1.3698377,0.06985 q 0.2095502,0 0.4035782,-0.155222 0.1940285,-0.155223 0.3453695,-0.368653 0.155223,-0.217312 0.34149,-0.531637 0.04657,-0.116417 0.04657,-0.252237 0,-0.08149 -0.05045,-0.1397 -0.04657,-0.06209 -0.128058,-0.06209 -0.09701,0 -0.248356,0.131939 -0.174625,0.147462 -0.3686535,0.395817 -0.1940279,0.244476 -0.3220864,0.48507 -0.1280585,0.240595 -0.1280585,0.380295 0,0.116417 0.1086557,0.116417 z"
         style="stroke-width:0.264583"
         id="path97" />
      <path
         d="m 13.019628,61.492676 q 0,0.06597 -0.05821,0.100895 -0.05433,0.03493 -0.201789,0.05433 -0.357011,0.06209 -0.399697,0.06985 l -0.252237,0.04269 q 0,0.201789 0.0039,0.422981 0.0078,0.221192 0.0194,0.388056 0.01552,0.225072 0.05433,0.34537 0.03881,0.120297 0.04269,0.135819 0,0.03881 -0.05045,0.06985 -0.04657,0.03492 -0.08925,0.03492 -0.02328,0 -0.0388,-0.01552 -0.01552,-0.01164 -0.02716,-0.04269 -0.02328,-0.05433 -0.04657,-0.201789 -0.0194,-0.147461 -0.03104,-0.325967 -0.01164,-0.159103 -0.0194,-0.368653 -0.0039,-0.213431 -0.0039,-0.41134 -0.217311,0.03492 -0.446264,0.08537 -0.20567,0.04269 -0.244475,0.04269 -0.04657,0 -0.08925,-0.02716 -0.03881,-0.02716 -0.03881,-0.07373 0,-0.05045 0.03492,-0.06597 0.03492,-0.01552 0.116417,-0.01552 0.05821,0 0.170745,-0.0194 0.112536,-0.02328 0.14358,-0.03104 0.259998,-0.05045 0.353131,-0.06597 0,-0.08149 -0.0078,-0.213431 -0.0078,-0.178506 -0.0078,-0.271639 0,-0.151342 0.0078,-0.232834 0.01164,-0.08537 0.03881,-0.151342 0.03104,-0.07761 0.116417,-0.07761 0.03492,0 0.04657,0.01164 0.01164,0.01164 0.01164,0.04269 0,0.02328 -0.0194,0.135819 -0.0194,0.112537 -0.0194,0.298804 0,0.14358 0.0078,0.322086 l 0.0039,0.104775 q 0.174625,-0.02716 0.69074,-0.143581 0.03104,-0.0078 0.05045,-0.05433 0.02328,-0.04657 0.04657,-0.04657 0.04269,0 0.08537,0.05045 0.04657,0.04657 0.04657,0.09701 z"
         style="stroke-width:0.264583"
         id="path99" />
      <path
         d="m 13.473651,60.669997 q 0,0.05821 -0.128059,0.05821 -0.06597,0 -0.135819,-0.05433 -0.06597,-0.05433 -0.06597,-0.08925 0,-0.04269 0.03881,-0.08149 0.04269,-0.0388 0.08537,-0.0388 0,0 0.02716,0.01164 0.03104,0.0078 0.06985,0.05045 0.03104,0.03104 0.06985,0.08149 0.03881,0.05045 0.03881,0.06209 z m 0.09701,2.440873 q 0,0.03881 -0.03492,0.05821 -0.03105,0.02328 -0.07373,0.0194 -0.05433,-0.0039 -0.08149,-0.174625 -0.02328,-0.170745 -0.05045,-0.648054 -0.01552,-0.314325 -0.02716,-0.613128 -0.01164,-0.302684 -0.01552,-0.465668 0,-0.04269 0.01164,-0.06209 0.01552,-0.02328 0.05433,-0.02328 0.08925,0 0.112537,0.07373 0.02328,0.07373 0.02328,0.283281 l -0.0039,0.457906 q 0,0.391936 0.02328,0.62865 0,0.01164 0.03492,0.248356 0.02716,0.162984 0.02716,0.217312 z"
         style="stroke-width:0.264583"
         id="path101" />
      <path
         d="m 15.968845,61.131784 q 0,0.0194 -0.05433,0.05433 -0.05045,0.03493 -0.06209,0.05045 -0.201789,0.228953 -0.376415,0.655815 -0.174625,0.426861 -0.275519,0.923573 -0.01164,0.05821 -0.03881,0.232834 l -0.0194,0.135819 q -0.01164,0.06209 -0.05433,0.09701 -0.0388,0.03493 -0.1397,0.03493 -0.0194,0 -0.131939,-0.232833 -0.112536,-0.236714 -0.236714,-0.508354 L 14.412741,62.21058 q -0.151342,-0.329848 -0.252236,-0.516115 -0.100895,-0.186267 -0.147462,-0.186267 -0.01552,0 -0.02716,0.0194 -0.0078,0.0194 -0.0194,0.0194 -0.0194,0 -0.03492,-0.01552 -0.01164,-0.0194 -0.01164,-0.03881 0,-0.05045 0.05433,-0.131939 0.05821,-0.08149 0.112536,-0.08149 0.03881,0 0.05821,0.01552 0.0194,0.01552 0.03492,0.03493 0.01552,0.0194 0.02328,0.03104 0.09313,0.116417 0.322086,0.613129 0.08149,0.174625 0.403578,0.911931 l 0.08925,0.20567 q 0,-0.100895 0.03881,-0.325967 0.08537,-0.457906 0.256117,-0.908051 0.170744,-0.450145 0.399698,-0.752829 0.04657,-0.06209 0.07373,-0.08537 0.03104,-0.02716 0.07761,-0.02716 0.0194,0 0.06209,0.06209 0.04269,0.05821 0.04269,0.07761 z"
         style="stroke-width:0.264583"
         id="path103" />
      <path
         d="m 17.606441,62.109685 q 0.02716,0 0.02716,0.05821 0,0.06985 -0.104776,0.306564 -0.100894,0.236714 -0.310444,0.438503 -0.20567,0.201789 -0.508354,0.201789 -0.248356,0 -0.41522,-0.155222 -0.166864,-0.155223 -0.166864,-0.477309 0,-0.302684 0.1397,-0.597606 0.139701,-0.298803 0.364773,-0.48507 0.225073,-0.190148 0.465667,-0.190148 0.143581,0 0.240595,0.06597 0.100895,0.06209 0.100895,0.182386 0,0.13582 -0.155223,0.263878 -0.151342,0.128059 -0.395817,0.225073 -0.244475,0.09701 -0.504473,0.1397 -0.04657,0.178506 -0.04657,0.34925 0,0.225073 0.104775,0.349251 0.108655,0.124177 0.306564,0.124177 0.298803,0 0.48507,-0.21343 0.186267,-0.213431 0.310445,-0.48119 0.0078,-0.01552 0.02716,-0.05821 0.0194,-0.04657 0.03493,-0.04657 z m -0.34149,-0.609248 q 0,-0.06209 -0.06597,-0.09701 -0.06209,-0.03492 -0.147461,-0.03492 -0.147462,0 -0.283281,0.09701 -0.13582,0.09701 -0.228953,0.232834 -0.08925,0.135819 -0.116417,0.240594 0.178506,-0.0194 0.376414,-0.100894 0.197909,-0.08149 0.329848,-0.178506 0.135819,-0.09701 0.135819,-0.159103 z"
         style="stroke-width:0.264583"
         id="path105" />
    </g>
    <g
       aria-label="MPE"
       id="text82"
       style="font-size:3.88056px;line-height:1.25;font-family:'Ink Free';-inkscape-font-specification:'Ink Free';stroke-width:0.264583"
       transform="translate(5.3671803,1.750966)">
      <path
         d="m 9.0247437,55.169742 q 0,0.02716 -0.046567,0.06209 -0.042686,0.03104 -0.097014,0.03104 -0.046567,0 -0.073731,-0.0039 -0.027164,-0.0078 -0.038806,-0.03493 -0.034925,-0.05821 -0.081492,-0.34537 Q 8.6405667,54.591511 8.5978807,54.218977 8.5047467,53.081973 8.4543,53.05869 q -0.042686,0.09313 -0.1319391,0.353131 -0.089253,0.256117 -0.2056697,0.671337 -0.1280584,0.446264 -0.194028,0.617009 -0.06597,0.166864 -0.1164168,0.205669 -0.031044,0.02716 -0.077611,0.05433 -0.042686,0.02328 -0.073731,0.02328 -0.038806,0 -0.050447,-0.0078 -0.011642,-0.01164 -0.027164,-0.06209 -0.015522,-0.05821 -0.073731,-0.360892 Q 7.4453544,54.2461 7.4143094,54.001625 L 7.3910279,53.83871 q -0.06597,-0.504473 -0.089253,-0.562681 -0.073731,0.06597 -0.1397002,0.294923 -0.06597,0.225072 -0.1513418,0.640292 -0.081492,0.322086 -0.1979086,1.047751 -0.00388,0.04269 -0.058208,0.07761 -0.054328,0.03492 -0.097014,0.03492 -0.062089,0 -0.06985,-0.120297 -0.00388,-0.120297 -0.054328,-0.519995 Q 6.4868573,54.331535 6.4480523,54.028852 6.3937243,53.59811 6.300591,53.229456 6.273427,53.11304 6.273427,53.097517 q 0,-0.05821 0.054328,-0.09313 0.058208,-0.03881 0.1241779,-0.03881 0.031045,0 0.06597,0.240595 0.034925,0.240595 0.073731,0.605367 l 0.011642,0.128059 q 0.015522,0.128058 0.034925,0.267758 0.073731,0.593726 0.081492,0.745068 0.077611,-0.450145 0.1746252,-0.904171 l 0.034925,-0.170744 q 0.085372,-0.411339 0.1862669,-0.62089 0.1008945,-0.213431 0.2599975,-0.213431 0.050447,0 0.1125362,0.263879 0.062089,0.259997 0.097014,0.609247 0.027164,0.248356 0.06985,0.48507 0.042686,0.236715 0.077611,0.329848 0.023283,-0.06597 0.093133,-0.291042 0.073731,-0.225072 0.1358196,-0.426862 0.1901475,-0.648053 0.4035783,-1.160287 0.038806,-0.08149 0.073731,-0.116417 0.038806,-0.03881 0.1319391,-0.03881 0.050447,0 0.1086556,0.442383 0.058208,0.442384 0.097014,1.024468 0.1047751,0.822679 0.1901475,0.89641 0.058208,0.05045 0.058208,0.108655 z"
         style="stroke-width:0.264583"
         id="path84" />
      <path
         d="m 11.190091,53.497221 q 0,0.228953 -0.186267,0.395817 -0.186267,0.162984 -0.519995,0.310445 -0.120297,0.05433 -0.244475,0.100894 -0.124178,0.04657 -0.162984,0.05821 0.0194,0.473428 0.0194,0.807156 0,0.108656 0.02328,0.178506 0.02716,0.06597 0.02716,0.08537 0,0.04269 -0.04269,0.06985 -0.04269,0.03104 -0.08925,0.03104 -0.058208,0 -0.07373,-0.08149 0,-0.0078 -0.011642,-0.06985 -0.00776,-0.06209 -0.00776,-0.174625 0,-0.302684 -0.023283,-0.993423 -0.011642,-0.349251 -0.011642,-0.496712 0,-0.124178 0.00388,-0.228953 0.00388,-0.108656 0.00388,-0.147461 -0.2444753,0.06597 -0.422981,0.135819 -0.058208,0.02716 -0.1629836,0.08925 -0.046567,0.02716 -0.093133,0.05045 -0.042686,0.02328 -0.065969,0.02328 -0.031045,0 -0.054328,-0.02716 -0.023283,-0.02716 -0.023283,-0.06597 0,-0.05045 0.1474613,-0.124178 0.1474612,-0.07761 0.3570115,-0.147461 0.2134308,-0.06985 0.3919365,-0.104775 0.2095503,-0.03881 0.4656673,-0.03881 0.353131,0 0.55492,0.09313 0.201789,0.08925 0.201789,0.271639 z m -0.178506,0.03104 q 0,-0.131939 -0.166864,-0.186266 -0.166864,-0.05433 -0.411339,-0.05433 -0.178506,0 -0.364773,0.02328 -0.0039,0.03104 -0.01164,0.143581 -0.0039,0.112536 -0.0039,0.213431 l 0.0039,0.28328 q 0.0039,0.09313 0.0039,0.236715 0.08149,-0.0078 0.34537,-0.116417 0.256117,-0.112536 0.430742,-0.248356 0.174625,-0.1397 0.174625,-0.294923 z"
         style="stroke-width:0.264583"
         id="path86" />
      <path
         d="m 13.514545,52.899615 q 0,0.04657 -0.06597,0.08149 -0.104775,0.05821 -0.329848,0.124177 -0.221192,0.06597 -0.364773,0.09313 -0.225072,0.04269 -0.454025,0.06985 -0.225073,0.02328 -0.291042,0.02716 0.0039,0.225072 0.01164,0.465667 0.0078,0.236714 0.01164,0.325967 0.151342,-0.0194 0.454026,-0.07373 l 0.147461,-0.02328 q 0.244475,-0.04269 0.376414,-0.155222 0.06985,-0.05433 0.100895,-0.05433 0.02716,0 0.04269,0.03104 0.0194,0.02716 0.0194,0.05821 0,0.06985 -0.159103,0.155222 -0.155222,0.08149 -0.34537,0.120297 -0.159103,0.03493 -0.357011,0.06597 -0.197909,0.03104 -0.259998,0.03881 0.02328,0.663575 0.13582,0.985662 0.112536,0.03881 0.221192,0.05821 0.108655,0.01552 0.2794,0.01552 0.170745,0 0.325967,-0.04269 0.155222,-0.04657 0.248356,-0.112536 0.09701,-0.06597 0.09701,-0.124178 0,-0.03104 -0.01164,-0.05821 -0.01164,-0.03104 -0.03104,-0.06209 -0.0078,-0.01164 -0.02716,-0.03493 -0.01552,-0.02716 -0.01552,-0.04269 0,-0.03881 0.08537,-0.03881 0.06209,0 0.104775,0.05433 0.04657,0.05045 0.04657,0.112536 0,0.124178 -0.112537,0.244475 -0.108655,0.120298 -0.302683,0.194028 -0.190148,0.07761 -0.422981,0.07761 -0.236714,0 -0.388056,-0.02716 -0.151342,-0.02328 -0.228953,-0.09701 -0.09313,-0.104775 -0.131939,-0.364773 -0.03492,-0.259998 -0.06209,-0.69462 -0.07373,0.0194 -0.166864,0.03493 -0.08925,0.01164 -0.13582,0.01164 -0.04657,0 -0.07761,-0.02716 -0.02716,-0.03104 -0.02716,-0.07373 0,-0.02716 0.0078,-0.04657 0.01164,-0.0194 0.03105,-0.02328 0.128058,-0.01552 0.186266,-0.0194 l 0.166864,-0.0194 q -0.01552,-0.500592 -0.03104,-0.814917 -0.05821,0 -0.09313,0.0039 l -0.178506,0.0039 q -0.03493,0 -0.05433,-0.0194 -0.0194,-0.0194 -0.0194,-0.04269 0,-0.09313 0.124178,-0.124178 0.04657,-0.0078 0.116417,-0.01552 0.07373,-0.01164 0.09701,-0.01164 0.07373,-0.08149 0.162983,-0.08149 0.01552,0 0.02328,0.02716 0.01164,0.02328 0.01164,0.03493 0.256117,-0.01164 0.609248,-0.05821 0.232834,-0.03104 0.717904,-0.147461 l 0.143581,-0.03104 q 0.0388,0 0.0388,0.04657 z"
         style="stroke-width:0.264583"
         id="path88" />
    </g>
  </g>
  <g
     inkscape:groupmode="layer"
     id="layer2"
     inkscape:label="Scritta">
    <g
       aria-label="Midi MPE"
       id="text34"
       style="font-size:8.46667px;line-height:1.25;font-family:'Ink Free';-inkscape-font-specification:'Ink Free';display:inline;stroke-width:0.264583"
       transform="translate(-2.6130627,-0.98538167)">
      <path
         d="m 21.26942,16.17462 q 0,0.05927 -0.1016,0.135467 -0.09313,0.06773 -0.211667,0.06773 -0.1016,0 -0.160867,-0.0085 -0.05927,-0.01693 -0.08467,-0.0762 -0.0762,-0.127 -0.1778,-0.753534 -0.1016,-0.626533 -0.194733,-1.439334 -0.2032,-2.480734 -0.313267,-2.531534 -0.09313,0.2032 -0.287867,0.770467 -0.194733,0.5588 -0.448733,1.464734 -0.2794,0.973667 -0.423334,1.3462 -0.143933,0.364067 -0.254,0.448734 -0.06773,0.05927 -0.169333,0.118533 -0.09313,0.0508 -0.160867,0.0508 -0.08467,0 -0.110067,-0.01693 -0.0254,-0.0254 -0.05927,-0.135467 -0.03387,-0.127 -0.160867,-0.7874 -0.127,-0.668867 -0.194734,-1.202267 l -0.0508,-0.3556 q -0.143933,-1.100667 -0.194733,-1.227668 -0.160867,0.143934 -0.3048,0.643467 -0.143933,0.491067 -0.3302,1.397001 -0.1778,0.702734 -0.4318,2.286001 -0.0085,0.09313 -0.127,0.169333 -0.118534,0.0762 -0.211667,0.0762 -0.135467,0 -0.1524,-0.262466 -0.0085,-0.262467 -0.118534,-1.134534 -0.1016,-0.872067 -0.186266,-1.532468 -0.118534,-0.9398 -0.321734,-1.744134 -0.05927,-0.254 -0.05927,-0.287866 0,-0.127 0.118534,-0.2032 0.127,-0.08467 0.270933,-0.08467 0.06773,0 0.143934,0.524933 0.0762,0.524934 0.160866,1.320801 l 0.0254,0.2794 q 0.03387,0.2794 0.0762,0.5842 0.160867,1.295401 0.177801,1.625601 0.169333,-0.982134 0.381,-1.972734 l 0.0762,-0.372534 q 0.186266,-0.897467 0.4064,-1.354667 0.220133,-0.465667 0.567267,-0.465667 0.110066,0 0.245533,0.575734 0.135467,0.567267 0.211667,1.329267 0.05927,0.541867 0.1524,1.058334 0.09313,0.516467 0.169333,0.719667 0.0508,-0.143934 0.203201,-0.635001 0.160866,-0.491066 0.296333,-0.931333 0.414867,-1.413934 0.880534,-2.531535 0.08467,-0.1778 0.160866,-0.254 0.08467,-0.08467 0.287867,-0.08467 0.110067,0 0.237067,0.9652 0.127,0.9652 0.211667,2.235201 0.2286,1.794934 0.414866,1.955801 0.127001,0.110066 0.127001,0.237066 z"
         style="font-size:8.46667px;stroke-width:0.264583"
         id="path40" />
      <path
         d="m 22.530942,11.323219 q 0,0.127 -0.2794,0.127 -0.143933,0 -0.296333,-0.118534 -0.143934,-0.118533 -0.143934,-0.194733 0,-0.09313 0.08467,-0.1778 0.09313,-0.08467 0.186267,-0.08467 0,0 0.05927,0.0254 0.06773,0.01693 0.1524,0.110067 0.06773,0.06773 0.152401,0.1778 0.08467,0.110067 0.08467,0.135467 z m 0.211667,5.325535 q 0,0.08467 -0.0762,0.127 -0.06773,0.0508 -0.160867,0.04233 -0.118533,-0.0085 -0.1778,-0.381 -0.0508,-0.372533 -0.110067,-1.413934 -0.03387,-0.6858 -0.05927,-1.337734 -0.0254,-0.6604 -0.03387,-1.016 0,-0.09313 0.0254,-0.135467 0.03387,-0.0508 0.118533,-0.0508 0.194734,0 0.245534,0.160867 0.0508,0.160867 0.0508,0.618067 l -0.0085,0.999067 q 0,0.855134 0.0508,1.371601 0,0.0254 0.0762,0.541866 0.05927,0.355601 0.05927,0.474134 z"
         style="font-size:8.46667px;stroke-width:0.264583"
         id="path42" />
      <path
         d="m 26.848932,10.832152 q 0,0.169333 -0.01693,0.668867 -0.01693,0.491066 -0.01693,0.9906 0,0.9652 0.04233,1.972734 0.04233,0.999067 0.06773,1.312334 0,0.0508 0.0085,0.110067 0.0085,0.05927 0.01693,0.110066 0.03387,0.237067 0.03387,0.287867 0,0.08467 -0.127,0.160867 -0.118533,0.0762 -0.186266,0.0762 -0.09313,0 -0.127001,-0.06773 -0.0254,-0.0762 -0.0254,-0.203201 0,-0.465666 0.0254,-0.973667 l 0.0085,-0.474133 q 0,-0.237067 -0.0085,-0.618067 -0.0085,-0.389467 -0.0254,-0.651934 -0.4318,1.388534 -0.982133,2.302935 -0.541867,0.905933 -1.176867,0.905933 -0.287867,0 -0.491067,-0.270933 -0.194734,-0.270934 -0.194734,-0.778934 0,-0.668867 0.448734,-1.456267 0.4572,-0.7874 1.032934,-1.354667 0.5842,-0.567267 0.8636,-0.567267 0.270933,0 0.270933,0.1778 0,0.118533 -0.08467,0.2794 -0.0762,0.1524 -0.1778,0.2794 -0.09313,0.127 -0.110067,0.127 -0.01693,0 -0.04233,-0.0085 -0.01693,-0.01693 -0.01693,-0.03387 0,-0.04233 0.04233,-0.143933 0.04233,-0.101601 0.04233,-0.135467 0,-0.04233 -0.0085,-0.05927 -0.0085,-0.01693 -0.0508,-0.01693 -0.1778,0 -0.643467,0.491067 -0.4572,0.4826 -0.821267,1.151467 -0.364066,0.668867 -0.364066,1.2446 0,0.2032 0.08467,0.381 0.08467,0.1778 0.2794,0.1778 0.618067,0 1.143001,-1.0414 0.5334,-1.049867 0.922867,-2.379134 l -0.01693,-0.711201 q -0.0254,-0.9398 -0.0254,-0.999067 0,-0.508 0.04233,-0.728133 0.01693,-0.08467 0.03387,-0.118534 0.0254,-0.03387 0.09313,-0.03387 0.08467,0 0.169333,0.05927 0.08467,0.0508 0.08467,0.143934 z"
         style="font-size:8.46667px;stroke-width:0.264583"
         id="path45" />
      <path
         d="m 28.398319,11.323219 q 0,0.127 -0.2794,0.127 -0.143933,0 -0.296334,-0.118534 -0.143933,-0.118533 -0.143933,-0.194733 0,-0.09313 0.08467,-0.1778 0.09313,-0.08467 0.186267,-0.08467 0,0 0.05927,0.0254 0.06773,0.01693 0.1524,0.110067 0.06773,0.06773 0.1524,0.1778 0.08467,0.110067 0.08467,0.135467 z m 0.211667,5.325535 q 0,0.08467 -0.0762,0.127 -0.06773,0.0508 -0.160867,0.04233 -0.118533,-0.0085 -0.1778,-0.381 -0.0508,-0.372533 -0.110067,-1.413934 -0.03387,-0.6858 -0.05927,-1.337734 -0.0254,-0.6604 -0.03387,-1.016 0,-0.09313 0.0254,-0.135467 0.03387,-0.0508 0.118533,-0.0508 0.194734,0 0.245534,0.160867 0.0508,0.160867 0.0508,0.618067 l -0.0085,0.999067 q 0,0.855134 0.0508,1.371601 0,0.0254 0.0762,0.541866 0.05927,0.355601 0.05927,0.474134 z"
         style="font-size:8.46667px;stroke-width:0.264583"
         id="path47" />
      <path
         d="m 38.253501,16.17462 q 0,0.05927 -0.1016,0.135467 -0.09313,0.06773 -0.211667,0.06773 -0.1016,0 -0.160867,-0.0085 -0.05927,-0.01693 -0.08467,-0.0762 -0.0762,-0.127 -0.1778,-0.753534 -0.101601,-0.626533 -0.194734,-1.439334 -0.2032,-2.480734 -0.313267,-2.531534 -0.09313,0.2032 -0.287866,0.770467 -0.194734,0.5588 -0.448734,1.464734 -0.2794,0.973667 -0.423333,1.3462 -0.143934,0.364067 -0.254001,0.448734 -0.06773,0.05927 -0.169333,0.118533 -0.09313,0.0508 -0.160867,0.0508 -0.08467,0 -0.110066,-0.01693 -0.0254,-0.0254 -0.05927,-0.135467 -0.03387,-0.127 -0.160867,-0.7874 -0.127,-0.668867 -0.194733,-1.202267 l -0.0508,-0.3556 q -0.143934,-1.100667 -0.194734,-1.227668 -0.160866,0.143934 -0.3048,0.643467 -0.143933,0.491067 -0.3302,1.397001 -0.1778,0.702734 -0.4318,2.286001 -0.0085,0.09313 -0.127,0.169333 -0.118534,0.0762 -0.211667,0.0762 -0.135467,0 -0.1524,-0.262466 -0.0085,-0.262467 -0.118533,-1.134534 -0.1016,-0.872067 -0.186267,-1.532468 -0.118533,-0.9398 -0.321734,-1.744134 -0.05927,-0.254 -0.05927,-0.287866 0,-0.127 0.118533,-0.2032 0.127,-0.08467 0.270934,-0.08467 0.06773,0 0.143933,0.524933 0.0762,0.524934 0.160867,1.320801 l 0.0254,0.2794 q 0.03387,0.2794 0.0762,0.5842 0.160866,1.295401 0.1778,1.625601 0.169333,-0.982134 0.381,-1.972734 l 0.0762,-0.372534 q 0.186267,-0.897467 0.4064,-1.354667 0.220134,-0.465667 0.567267,-0.465667 0.110067,0 0.245533,0.575734 0.135467,0.567267 0.211667,1.329267 0.05927,0.541867 0.1524,1.058334 0.09313,0.516467 0.169334,0.719667 0.0508,-0.143934 0.2032,-0.635001 0.160867,-0.491066 0.296333,-0.931333 0.414867,-1.413934 0.880534,-2.531535 0.08467,-0.1778 0.160867,-0.254 0.08467,-0.08467 0.287866,-0.08467 0.110067,0 0.237067,0.9652 0.127,0.9652 0.211667,2.235201 0.2286,1.794934 0.414867,1.955801 0.127,0.110066 0.127,0.237066 z"
         style="font-size:8.46667px;stroke-width:0.264583"
         id="path49" />
      <path
         d="m 42.97789,12.525486 q 0,0.499533 -0.4064,0.8636 -0.4064,0.3556 -1.134534,0.677334 -0.262467,0.118533 -0.5334,0.220133 -0.270933,0.1016 -0.3556,0.127 0.04233,1.032934 0.04233,1.761067 0,0.237067 0.0508,0.389467 0.05927,0.143934 0.05927,0.186267 0,0.09313 -0.09313,0.1524 -0.09313,0.06773 -0.194734,0.06773 -0.127,0 -0.160867,-0.1778 0,-0.01693 -0.0254,-0.1524 -0.01693,-0.135466 -0.01693,-0.381 0,-0.6604 -0.0508,-2.167467 -0.0254,-0.762001 -0.0254,-1.083734 0,-0.270934 0.0085,-0.499534 0.0085,-0.237066 0.0085,-0.321733 -0.5334,0.143933 -0.922867,0.296333 -0.127,0.05927 -0.3556,0.194734 -0.1016,0.05927 -0.2032,0.110066 -0.09313,0.0508 -0.143933,0.0508 -0.06773,0 -0.118534,-0.05927 -0.0508,-0.05927 -0.0508,-0.143934 0,-0.110066 0.321734,-0.270933 0.321733,-0.169333 0.778933,-0.321734 0.465667,-0.1524 0.855134,-0.2286 0.4572,-0.08467 1.016,-0.08467 0.770467,0 1.210734,0.2032 0.440267,0.194733 0.440267,0.592667 z m -0.389467,0.06773 q 0,-0.287867 -0.364067,-0.4064 -0.364066,-0.118534 -0.897467,-0.118534 -0.389466,0 -0.795867,0.0508 -0.0085,0.06773 -0.0254,0.313267 -0.0085,0.245534 -0.0085,0.465667 l 0.0085,0.618067 q 0.0085,0.2032 0.0085,0.516467 0.1778,-0.01693 0.753534,-0.254 0.5588,-0.245534 0.9398,-0.541867 0.381,-0.3048 0.381,-0.643467 z"
         style="font-size:8.46667px;stroke-width:0.264583"
         id="path51" />
      <path
         d="m 48.049423,11.221618 q 0,0.101601 -0.143933,0.177801 -0.2286,0.127 -0.719667,0.270933 -0.4826,0.143933 -0.795867,0.2032 -0.491067,0.09313 -0.990601,0.1524 -0.491067,0.0508 -0.635,0.05927 0.0085,0.491067 0.0254,1.016 0.01693,0.516467 0.0254,0.711201 0.3302,-0.04233 0.990601,-0.160867 l 0.321733,-0.0508 q 0.5334,-0.09313 0.821267,-0.338667 0.1524,-0.118533 0.220133,-0.118533 0.05927,0 0.09313,0.06773 0.04233,0.05927 0.04233,0.127 0,0.1524 -0.347133,0.338667 -0.338667,0.1778 -0.753534,0.262467 -0.347133,0.0762 -0.778934,0.143933 -0.4318,0.06773 -0.567267,0.08467 0.0508,1.4478 0.296334,2.150534 0.245533,0.08467 0.4826,0.127 0.237067,0.03387 0.6096,0.03387 0.372534,0 0.711201,-0.09313 0.338666,-0.1016 0.541867,-0.245533 0.211666,-0.143934 0.211666,-0.270934 0,-0.06773 -0.0254,-0.127 -0.0254,-0.06773 -0.06773,-0.135466 -0.01693,-0.0254 -0.05927,-0.0762 -0.03387,-0.05927 -0.03387,-0.09313 0,-0.08467 0.186266,-0.08467 0.135467,0 0.2286,0.118534 0.1016,0.110067 0.1016,0.245533 0,0.270934 -0.245533,0.5334 -0.237067,0.262467 -0.6604,0.423334 -0.414867,0.169333 -0.922867,0.169333 -0.516467,0 -0.846667,-0.05927 -0.3302,-0.0508 -0.499534,-0.211667 -0.2032,-0.2286 -0.287867,-0.795867 -0.0762,-0.567267 -0.135466,-1.515534 -0.160867,0.04233 -0.364067,0.0762 -0.194734,0.0254 -0.296334,0.0254 -0.1016,0 -0.169333,-0.05927 -0.05927,-0.06773 -0.05927,-0.160866 0,-0.05927 0.01693,-0.1016 0.0254,-0.04233 0.06773,-0.0508 0.2794,-0.03387 0.4064,-0.04233 l 0.364067,-0.04233 q -0.03387,-1.092201 -0.06773,-1.778001 -0.127,0 -0.2032,0.0085 l -0.389467,0.0085 q -0.0762,0 -0.118534,-0.04233 -0.04233,-0.04233 -0.04233,-0.09313 0,-0.2032 0.270933,-0.270934 0.1016,-0.01693 0.254001,-0.03387 0.160866,-0.0254 0.211666,-0.0254 0.160867,-0.1778 0.3556,-0.1778 0.03387,0 0.0508,0.05927 0.0254,0.0508 0.0254,0.0762 0.558801,-0.0254 1.329268,-0.127 0.508,-0.06773 1.566334,-0.321733 l 0.313266,-0.06773 q 0.08467,0 0.08467,0.1016 z"
         style="font-size:8.46667px;stroke-width:0.264583"
         id="path53" />
    </g>
  </g>
  <g
     inkscape:groupmode="layer"
     id="layer5"
     inkscape:label="Disegni vari">
    <rect
       style="opacity:0.999;fill:#0a0a0a;fill-opacity:1;stroke-width:0.361221"
       id="rect1237"
       width="10.836662"
       height="10.836658"
       x="40.757088"
       y="54.858822"
       ry="3.6122181" />
    <rect
       style="opacity:0.999;fill:#0a0a0a;fill-opacity:1;stroke-width:0.361222"
       id="rect1253"
       width="10.836661"
       height="10.836657"
       x="40.757088"
       y="69.101288"
       ry="3.6122181" />
    <rect
       style="opacity:0.999;fill:#0a0a0a;fill-opacity:1;stroke-width:0.36122"
       id="rect1255"
       width="10.836663"
       height="10.83666"
       x="40.757088"
       y="83.34375"
       ry="3.6122186" />
    <rect
       style="opacity:0.999;fill:#0a0a0a;fill-opacity:1;stroke-width:0.361221"
       id="rect1257"
       width="10.836663"
       height="10.836659"
       x="40.757088"
       y="97.586189"
       ry="3.6122189"
       inkscape:transform-center-x="1.4448889"
       inkscape:transform-center-y="-14.629504" />
    <rect
       style="opacity:0.999;fill:#0a0a0a;fill-opacity:1;stroke-width:0.361222"
       id="rect1259"
       width="10.836663"
       height="10.836659"
       x="40.757088"
       y="111.8287"
       ry="3.6122191"
       inkscape:transform-center-x="1.444889"
       inkscape:transform-center-y="-14.629468" />
    <rect
       style="opacity:0.999;fill:#0a0a0a;fill-opacity:1;stroke-width:0.361221"
       id="rect1261"
       width="10.836663"
       height="10.836658"
       x="15.886254"
       y="69.056252"
       ry="3.6122186" />
    <rect
       style="opacity:0.999;fill:#0a0a0a;fill-opacity:1;stroke-width:0.361221"
       id="rect1263"
       width="10.836663"
       height="10.836659"
       x="15.875"
       y="97.642502"
       ry="3.6122189"
       inkscape:transform-center-x="1.4448889"
       inkscape:transform-center-y="-14.629504" />
  </g>
  <g
     inkscape:groupmode="layer"
     id="layer3"
     inkscape:label="components"
     style="display:inline" />
</svg>
