<?xml version="1.0" encoding="UTF-8" standalone="no"?>
<svg
   xmlns:dc="http://purl.org/dc/elements/1.1/"
   xmlns:cc="http://creativecommons.org/ns#"
   xmlns:rdf="http://www.w3.org/1999/02/22-rdf-syntax-ns#"
   xmlns:svg="http://www.w3.org/2000/svg"
   xmlns="http://www.w3.org/2000/svg"
   xmlns:sodipodi="http://sodipodi.sourceforge.net/DTD/sodipodi-0.dtd"
   xmlns:inkscape="http://www.inkscape.org/namespaces/inkscape"
   width="54mm"
   height="128.5mm"
   viewBox="0 0 54.000001 128.5"
   version="1.1"
   id="svg8"
   inkscape:version="1.0.2-2 (e86c870879, 2021-01-15)"
   sodipodi:docname="MidiPlugin.svg">
  <defs
     id="defs2" />
  <sodipodi:namedview
     id="base"
     pagecolor="#ffffff"
     bordercolor="#666666"
     borderopacity="1.0"
     inkscape:pageopacity="0.0"
     inkscape:pageshadow="2"
     inkscape:zoom="0.70710678"
     inkscape:cx="-56.499191"
     inkscape:cy="191.98509"
     inkscape:document-units="mm"
     inkscape:current-layer="layer1"
     inkscape:document-rotation="0"
     showgrid="true"
     units="mm"
     inkscape:pagecheckerboard="false"
     inkscape:window-width="1366"
     inkscape:window-height="715"
     inkscape:window-x="-8"
     inkscape:window-y="-8"
     inkscape:window-maximized="1"
     showguides="false">
    <inkscape:grid
       type="xygrid"
       id="grid28"
       dotted="true"
       units="px" />
  </sodipodi:namedview>
  <metadata
     id="metadata5">
    <rdf:RDF>
      <cc:Work
         rdf:about="">
        <dc:format>image/svg+xml</dc:format>
        <dc:type
           rdf:resource="http://purl.org/dc/dcmitype/StillImage" />
        <dc:title></dc:title>
      </cc:Work>
    </rdf:RDF>
  </metadata>
  <g
     inkscape:label="Layer 1"
     inkscape:groupmode="layer"
     id="layer1"
     style="display:inline">
    <rect
       style="fill:#ff00ff;fill-opacity:0;stroke-width:0.264583"
       id="rect853"
       width="58.208332"
       height="132.29167"
       x="0"
       y="0" />
    <rect
       style="opacity:0.999;mix-blend-mode:normal;fill:#f0f0f0;fill-opacity:1;stroke-width:0.283649"
       id="rect855"
       width="60.854168"
       height="131.72377"
       x="0"
       y="-1.5681417" />
    <g
       aria-label="Midi MPE"
       id="text34"
       style="font-size:8.46667px;line-height:1.25;font-family:'Ink Free';-inkscape-font-specification:'Ink Free';stroke-width:0.264583">
      <path
         d="m 21.26942,16.17462 q 0,0.05927 -0.1016,0.135467 -0.09313,0.06773 -0.211667,0.06773 -0.1016,0 -0.160867,-0.0085 -0.05927,-0.01693 -0.08467,-0.0762 -0.0762,-0.127 -0.1778,-0.753534 -0.1016,-0.626533 -0.194733,-1.439334 -0.2032,-2.480734 -0.313267,-2.531534 -0.09313,0.2032 -0.287867,0.770467 -0.194733,0.5588 -0.448733,1.464734 -0.2794,0.973667 -0.423334,1.3462 -0.143933,0.364067 -0.254,0.448734 -0.06773,0.05927 -0.169333,0.118533 -0.09313,0.0508 -0.160867,0.0508 -0.08467,0 -0.110067,-0.01693 -0.0254,-0.0254 -0.05927,-0.135467 -0.03387,-0.127 -0.160867,-0.7874 -0.127,-0.668867 -0.194734,-1.202267 l -0.0508,-0.3556 q -0.143933,-1.100667 -0.194733,-1.227668 -0.160867,0.143934 -0.3048,0.643467 -0.143933,0.491067 -0.3302,1.397001 -0.1778,0.702734 -0.4318,2.286001 -0.0085,0.09313 -0.127,0.169333 -0.118534,0.0762 -0.211667,0.0762 -0.135467,0 -0.1524,-0.262466 -0.0085,-0.262467 -0.118534,-1.134534 -0.1016,-0.872067 -0.186266,-1.532468 -0.118534,-0.9398 -0.321734,-1.744134 -0.05927,-0.254 -0.05927,-0.287866 0,-0.127 0.118534,-0.2032 0.127,-0.08467 0.270933,-0.08467 0.06773,0 0.143934,0.524933 0.0762,0.524934 0.160866,1.320801 l 0.0254,0.2794 q 0.03387,0.2794 0.0762,0.5842 0.160867,1.295401 0.177801,1.625601 0.169333,-0.982134 0.381,-1.972734 l 0.0762,-0.372534 q 0.186266,-0.897467 0.4064,-1.354667 0.220133,-0.465667 0.567267,-0.465667 0.110066,0 0.245533,0.575734 0.135467,0.567267 0.211667,1.329267 0.05927,0.541867 0.1524,1.058334 0.09313,0.516467 0.169333,0.719667 0.0508,-0.143934 0.203201,-0.635001 0.160866,-0.491066 0.296333,-0.931333 0.414867,-1.413934 0.880534,-2.531535 0.08467,-0.1778 0.160866,-0.254 0.08467,-0.08467 0.287867,-0.08467 0.110067,0 0.237067,0.9652 0.127,0.9652 0.211667,2.235201 0.2286,1.794934 0.414866,1.955801 0.127001,0.110066 0.127001,0.237066 z"
         style="font-size:8.46667px;stroke-width:0.264583"
         id="path40" />
      <path
         d="m 22.530942,11.323219 q 0,0.127 -0.2794,0.127 -0.143933,0 -0.296333,-0.118534 -0.143934,-0.118533 -0.143934,-0.194733 0,-0.09313 0.08467,-0.1778 0.09313,-0.08467 0.186267,-0.08467 0,0 0.05927,0.0254 0.06773,0.01693 0.1524,0.110067 0.06773,0.06773 0.152401,0.1778 0.08467,0.110067 0.08467,0.135467 z m 0.211667,5.325535 q 0,0.08467 -0.0762,0.127 -0.06773,0.0508 -0.160867,0.04233 -0.118533,-0.0085 -0.1778,-0.381 -0.0508,-0.372533 -0.110067,-1.413934 -0.03387,-0.6858 -0.05927,-1.337734 -0.0254,-0.6604 -0.03387,-1.016 0,-0.09313 0.0254,-0.135467 0.03387,-0.0508 0.118533,-0.0508 0.194734,0 0.245534,0.160867 0.0508,0.160867 0.0508,0.618067 l -0.0085,0.999067 q 0,0.855134 0.0508,1.371601 0,0.0254 0.0762,0.541866 0.05927,0.355601 0.05927,0.474134 z"
         style="font-size:8.46667px;stroke-width:0.264583"
         id="path42" />
      <path
         d="m 26.848932,10.832152 q 0,0.169333 -0.01693,0.668867 -0.01693,0.491066 -0.01693,0.9906 0,0.9652 0.04233,1.972734 0.04233,0.999067 0.06773,1.312334 0,0.0508 0.0085,0.110067 0.0085,0.05927 0.01693,0.110066 0.03387,0.237067 0.03387,0.287867 0,0.08467 -0.127,0.160867 -0.118533,0.0762 -0.186266,0.0762 -0.09313,0 -0.127001,-0.06773 -0.0254,-0.0762 -0.0254,-0.203201 0,-0.465666 0.0254,-0.973667 l 0.0085,-0.474133 q 0,-0.237067 -0.0085,-0.618067 -0.0085,-0.389467 -0.0254,-0.651934 -0.4318,1.388534 -0.982133,2.302935 -0.541867,0.905933 -1.176867,0.905933 -0.287867,0 -0.491067,-0.270933 -0.194734,-0.270934 -0.194734,-0.778934 0,-0.668867 0.448734,-1.456267 0.4572,-0.7874 1.032934,-1.354667 0.5842,-0.567267 0.8636,-0.567267 0.270933,0 0.270933,0.1778 0,0.118533 -0.08467,0.2794 -0.0762,0.1524 -0.1778,0.2794 -0.09313,0.127 -0.110067,0.127 -0.01693,0 -0.04233,-0.0085 -0.01693,-0.01693 -0.01693,-0.03387 0,-0.04233 0.04233,-0.143933 0.04233,-0.101601 0.04233,-0.135467 0,-0.04233 -0.0085,-0.05927 -0.0085,-0.01693 -0.0508,-0.01693 -0.1778,0 -0.643467,0.491067 -0.4572,0.4826 -0.821267,1.151467 -0.364066,0.668867 -0.364066,1.2446 0,0.2032 0.08467,0.381 0.08467,0.1778 0.2794,0.1778 0.618067,0 1.143001,-1.0414 0.5334,-1.049867 0.922867,-2.379134 l -0.01693,-0.711201 q -0.0254,-0.9398 -0.0254,-0.999067 0,-0.508 0.04233,-0.728133 0.01693,-0.08467 0.03387,-0.118534 0.0254,-0.03387 0.09313,-0.03387 0.08467,0 0.169333,0.05927 0.08467,0.0508 0.08467,0.143934 z"
         style="font-size:8.46667px;stroke-width:0.264583"
         id="path45" />
      <path
         d="m 28.398319,11.323219 q 0,0.127 -0.2794,0.127 -0.143933,0 -0.296334,-0.118534 -0.143933,-0.118533 -0.143933,-0.194733 0,-0.09313 0.08467,-0.1778 0.09313,-0.08467 0.186267,-0.08467 0,0 0.05927,0.0254 0.06773,0.01693 0.1524,0.110067 0.06773,0.06773 0.1524,0.1778 0.08467,0.110067 0.08467,0.135467 z m 0.211667,5.325535 q 0,0.08467 -0.0762,0.127 -0.06773,0.0508 -0.160867,0.04233 -0.118533,-0.0085 -0.1778,-0.381 -0.0508,-0.372533 -0.110067,-1.413934 -0.03387,-0.6858 -0.05927,-1.337734 -0.0254,-0.6604 -0.03387,-1.016 0,-0.09313 0.0254,-0.135467 0.03387,-0.0508 0.118533,-0.0508 0.194734,0 0.245534,0.160867 0.0508,0.160867 0.0508,0.618067 l -0.0085,0.999067 q 0,0.855134 0.0508,1.371601 0,0.0254 0.0762,0.541866 0.05927,0.355601 0.05927,0.474134 z"
         style="font-size:8.46667px;stroke-width:0.264583"
         id="path47" />
      <path
         d="m 38.253501,16.17462 q 0,0.05927 -0.1016,0.135467 -0.09313,0.06773 -0.211667,0.06773 -0.1016,0 -0.160867,-0.0085 -0.05927,-0.01693 -0.08467,-0.0762 -0.0762,-0.127 -0.1778,-0.753534 -0.101601,-0.626533 -0.194734,-1.439334 -0.2032,-2.480734 -0.313267,-2.531534 -0.09313,0.2032 -0.287866,0.770467 -0.194734,0.5588 -0.448734,1.464734 -0.2794,0.973667 -0.423333,1.3462 -0.143934,0.364067 -0.254001,0.448734 -0.06773,0.05927 -0.169333,0.118533 -0.09313,0.0508 -0.160867,0.0508 -0.08467,0 -0.110066,-0.01693 -0.0254,-0.0254 -0.05927,-0.135467 -0.03387,-0.127 -0.160867,-0.7874 -0.127,-0.668867 -0.194733,-1.202267 l -0.0508,-0.3556 q -0.143934,-1.100667 -0.194734,-1.227668 -0.160866,0.143934 -0.3048,0.643467 -0.143933,0.491067 -0.3302,1.397001 -0.1778,0.702734 -0.4318,2.286001 -0.0085,0.09313 -0.127,0.169333 -0.118534,0.0762 -0.211667,0.0762 -0.135467,0 -0.1524,-0.262466 -0.0085,-0.262467 -0.118533,-1.134534 -0.1016,-0.872067 -0.186267,-1.532468 -0.118533,-0.9398 -0.321734,-1.744134 -0.05927,-0.254 -0.05927,-0.287866 0,-0.127 0.118533,-0.2032 0.127,-0.08467 0.270934,-0.08467 0.06773,0 0.143933,0.524933 0.0762,0.524934 0.160867,1.320801 l 0.0254,0.2794 q 0.03387,0.2794 0.0762,0.5842 0.160866,1.295401 0.1778,1.625601 0.169333,-0.982134 0.381,-1.972734 l 0.0762,-0.372534 q 0.186267,-0.897467 0.4064,-1.354667 0.220134,-0.465667 0.567267,-0.465667 0.110067,0 0.245533,0.575734 0.135467,0.567267 0.211667,1.329267 0.05927,0.541867 0.1524,1.058334 0.09313,0.516467 0.169334,0.719667 0.0508,-0.143934 0.2032,-0.635001 0.160867,-0.491066 0.296333,-0.931333 0.414867,-1.413934 0.880534,-2.531535 0.08467,-0.1778 0.160867,-0.254 0.08467,-0.08467 0.287866,-0.08467 0.110067,0 0.237067,0.9652 0.127,0.9652 0.211667,2.235201 0.2286,1.794934 0.414867,1.955801 0.127,0.110066 0.127,0.237066 z"
         style="font-size:8.46667px;stroke-width:0.264583"
         id="path49" />
      <path
         d="m 42.97789,12.525486 q 0,0.499533 -0.4064,0.8636 -0.4064,0.3556 -1.134534,0.677334 -0.262467,0.118533 -0.5334,0.220133 -0.270933,0.1016 -0.3556,0.127 0.04233,1.032934 0.04233,1.761067 0,0.237067 0.0508,0.389467 0.05927,0.143934 0.05927,0.186267 0,0.09313 -0.09313,0.1524 -0.09313,0.06773 -0.194734,0.06773 -0.127,0 -0.160867,-0.1778 0,-0.01693 -0.0254,-0.1524 -0.01693,-0.135466 -0.01693,-0.381 0,-0.6604 -0.0508,-2.167467 -0.0254,-0.762001 -0.0254,-1.083734 0,-0.270934 0.0085,-0.499534 0.0085,-0.237066 0.0085,-0.321733 -0.5334,0.143933 -0.922867,0.296333 -0.127,0.05927 -0.3556,0.194734 -0.1016,0.05927 -0.2032,0.110066 -0.09313,0.0508 -0.143933,0.0508 -0.06773,0 -0.118534,-0.05927 -0.0508,-0.05927 -0.0508,-0.143934 0,-0.110066 0.321734,-0.270933 0.321733,-0.169333 0.778933,-0.321734 0.465667,-0.1524 0.855134,-0.2286 0.4572,-0.08467 1.016,-0.08467 0.770467,0 1.210734,0.2032 0.440267,0.194733 0.440267,0.592667 z m -0.389467,0.06773 q 0,-0.287867 -0.364067,-0.4064 -0.364066,-0.118534 -0.897467,-0.118534 -0.389466,0 -0.795867,0.0508 -0.0085,0.06773 -0.0254,0.313267 -0.0085,0.245534 -0.0085,0.465667 l 0.0085,0.618067 q 0.0085,0.2032 0.0085,0.516467 0.1778,-0.01693 0.753534,-0.254 0.5588,-0.245534 0.9398,-0.541867 0.381,-0.3048 0.381,-0.643467 z"
         style="font-size:8.46667px;stroke-width:0.264583"
         id="path51" />
      <path
         d="m 48.049423,11.221618 q 0,0.101601 -0.143933,0.177801 -0.2286,0.127 -0.719667,0.270933 -0.4826,0.143933 -0.795867,0.2032 -0.491067,0.09313 -0.990601,0.1524 -0.491067,0.0508 -0.635,0.05927 0.0085,0.491067 0.0254,1.016 0.01693,0.516467 0.0254,0.711201 0.3302,-0.04233 0.990601,-0.160867 l 0.321733,-0.0508 q 0.5334,-0.09313 0.821267,-0.338667 0.1524,-0.118533 0.220133,-0.118533 0.05927,0 0.09313,0.06773 0.04233,0.05927 0.04233,0.127 0,0.1524 -0.347133,0.338667 -0.338667,0.1778 -0.753534,0.262467 -0.347133,0.0762 -0.778934,0.143933 -0.4318,0.06773 -0.567267,0.08467 0.0508,1.4478 0.296334,2.150534 0.245533,0.08467 0.4826,0.127 0.237067,0.03387 0.6096,0.03387 0.372534,0 0.711201,-0.09313 0.338666,-0.1016 0.541867,-0.245533 0.211666,-0.143934 0.211666,-0.270934 0,-0.06773 -0.0254,-0.127 -0.0254,-0.06773 -0.06773,-0.135466 -0.01693,-0.0254 -0.05927,-0.0762 -0.03387,-0.05927 -0.03387,-0.09313 0,-0.08467 0.186266,-0.08467 0.135467,0 0.2286,0.118534 0.1016,0.110067 0.1016,0.245533 0,0.270934 -0.245533,0.5334 -0.237067,0.262467 -0.6604,0.423334 -0.414867,0.169333 -0.922867,0.169333 -0.516467,0 -0.846667,-0.05927 -0.3302,-0.0508 -0.499534,-0.211667 -0.2032,-0.2286 -0.287867,-0.795867 -0.0762,-0.567267 -0.135466,-1.515534 -0.160867,0.04233 -0.364067,0.0762 -0.194734,0.0254 -0.296334,0.0254 -0.1016,0 -0.169333,-0.05927 -0.05927,-0.06773 -0.05927,-0.160866 0,-0.05927 0.01693,-0.1016 0.0254,-0.04233 0.06773,-0.0508 0.2794,-0.03387 0.4064,-0.04233 l 0.364067,-0.04233 q -0.03387,-1.092201 -0.06773,-1.778001 -0.127,0 -0.2032,0.0085 l -0.389467,0.0085 q -0.0762,0 -0.118534,-0.04233 -0.04233,-0.04233 -0.04233,-0.09313 0,-0.2032 0.270933,-0.270934 0.1016,-0.01693 0.254001,-0.03387 0.160866,-0.0254 0.211666,-0.0254 0.160867,-0.1778 0.3556,-0.1778 0.03387,0 0.0508,0.05927 0.0254,0.0508 0.0254,0.0762 0.558801,-0.0254 1.329268,-0.127 0.508,-0.06773 1.566334,-0.321733 l 0.313266,-0.06773 q 0.08467,0 0.08467,0.1016 z"
         style="font-size:8.46667px;stroke-width:0.264583"
         id="path53" />
    </g>
  </g>
  <g
     inkscape:groupmode="layer"
     id="layer3"
     inkscape:label="components"
     style="display:none">
    <circle
       style="opacity:0.999;fill:#f0f0f0;stroke-width:0.264583"
       id="path44"
       cx="26.987499"
       cy="64.029167"
       r="1.3229166" />
    <rect
       style="opacity:0.999;fill:#f0f0f0;stroke-width:0.264583"
       id="rect46"
       width="7.9375"
       height="3.96875"
       x="0"
       y="0" />
  </g>
</svg>
