<?xml version="1.0" encoding="UTF-8" standalone="no"?>
<svg
   xmlns:dc="http://purl.org/dc/elements/1.1/"
   xmlns:cc="http://creativecommons.org/ns#"
   xmlns:rdf="http://www.w3.org/1999/02/22-rdf-syntax-ns#"
   xmlns:svg="http://www.w3.org/2000/svg"
   xmlns="http://www.w3.org/2000/svg"
   xmlns:sodipodi="http://sodipodi.sourceforge.net/DTD/sodipodi-0.dtd"
   xmlns:inkscape="http://www.inkscape.org/namespaces/inkscape"
   width="54mm"
   height="128.5mm"
   viewBox="0 0 54.000001 128.5"
   version="1.1"
   id="svg8"
   inkscape:version="1.0.2-2 (e86c870879, 2021-01-15)"
   sodipodi:docname="MidiMPEModule.svg">
  <defs
     id="defs2" />
  <sodipodi:namedview
     id="base"
     pagecolor="#ffffff"
     bordercolor="#666666"
     borderopacity="1.0"
     inkscape:pageopacity="0.0"
     inkscape:pageshadow="2"
     inkscape:zoom="0.7"
     inkscape:cx="136.04788"
     inkscape:cy="217.29783"
     inkscape:document-units="mm"
     inkscape:current-layer="layer1"
     inkscape:document-rotation="0"
     showgrid="true"
     units="mm"
     inkscape:pagecheckerboard="false"
     inkscape:window-width="1366"
     inkscape:window-height="715"
     inkscape:window-x="-8"
     inkscape:window-y="269"
     inkscape:window-maximized="1">
    <inkscape:grid
       type="xygrid"
       id="grid28"
       dotted="true"
       units="px" />
  </sodipodi:namedview>
  <metadata
     id="metadata5">
    <rdf:RDF>
      <cc:Work
         rdf:about="">
        <dc:format>image/svg+xml</dc:format>
        <dc:type
           rdf:resource="http://purl.org/dc/dcmitype/StillImage" />
        <dc:title></dc:title>
      </cc:Work>
    </rdf:RDF>
  </metadata>
  <g
     inkscape:label="Layer 1"
     inkscape:groupmode="layer"
     id="layer1">
    <rect
       style="fill:#ff00ff;stroke-width:0.264583;fill-opacity:0"
       id="rect853"
       width="58.208332"
       height="132.29167"
       x="0"
       y="0" />
    <rect
       style="opacity:0.999;mix-blend-mode:normal;fill:#f0f0f0;fill-opacity:1;stroke-width:0.264583"
       id="rect855"
       width="54.239582"
       height="128.58749"
       x="0"
       y="0" />
    <g
       aria-label="MIDI MPE"
       id="text867"
       style="font-style:normal;font-weight:normal;font-size:8.46667px;line-height:1.25;font-family:sans-serif;fill:#000000;fill-opacity:1;stroke:none;stroke-width:0.264583"
       transform="translate(-2.1745507,0.42581507)">
      <path
         d="M 14.246161,7.9375 H 13.427606 V 2.6334289 L 11.716082,6.2425123 H 11.228257 L 9.5291347,2.6334289 V 7.9375 H 8.7643232 V 1.7818009 h 1.1162114 l 1.6412444,3.4271824 1.5875,-3.4271824 h 1.136882 z"
         style="font-size:8.46667px;stroke-width:0.264583"
         id="path869" />
      <path
         d="m 18.070219,7.9375 h -2.43086 V 7.3091143 h 0.806152 V 2.4101866 H 15.639359 V 1.7818009 h 2.43086 v 0.6283857 h -0.806153 v 4.8989277 h 0.806153 z"
         style="font-size:8.46667px;stroke-width:0.264583"
         id="path871" />
      <path
         d="m 24.664134,4.8658516 q 0,0.8392256 -0.367936,1.5213548 -0.363802,0.6821292 -0.971517,1.0583338 -0.42168,0.2604493 -0.942579,0.3762045 Q 21.865338,7.9375 21.017844,7.9375 H 19.463416 V 1.7818009 h 1.537891 q 0.901238,0 1.430405,0.1322918 0.533301,0.1281576 0.901237,0.355534 0.628386,0.392741 0.979785,1.0459314 0.3514,0.6531903 0.3514,1.5502935 z m -0.855762,-0.012402 q 0,-0.7234703 -0.252181,-1.2195643 Q 23.30401,3.1377911 22.803782,2.852537 22.43998,2.6458312 22.030702,2.567283 21.621425,2.4846007 21.050917,2.4846007 h -0.768946 v 4.7500995 h 0.768946 q 0.591178,0 1.029395,-0.086816 0.44235,-0.086816 0.810286,-0.3224611 0.458887,-0.2935222 0.686264,-0.7730797 0.23151,-0.4795575 0.23151,-1.1988938 z"
         style="font-size:8.46667px;stroke-width:0.264583"
         id="path873" />
      <path
         d="m 28.157463,7.9375 h -2.43086 V 7.3091143 h 0.806152 V 2.4101866 H 25.726603 V 1.7818009 h 2.43086 V 2.4101866 H 27.35131 v 4.8989277 h 0.806153 z"
         style="font-size:8.46667px;stroke-width:0.264583"
         id="path875" />
      <path
         d="M 38.009061,7.9375 H 37.190506 V 2.6334289 L 35.478982,6.2425123 H 34.991156 L 33.292034,2.6334289 V 7.9375 H 32.527223 V 1.7818009 h 1.116211 l 1.641244,3.4271824 1.587501,-3.4271824 h 1.136882 z"
         style="font-size:8.46667px;stroke-width:0.264583"
         id="path877" />
      <path
         d="m 43.689337,3.6421532 q 0,0.4092775 -0.144695,0.7606774 -0.140559,0.3472658 -0.396875,0.603581 -0.318327,0.3183269 -0.752409,0.4795575 -0.434082,0.1570964 -1.095541,0.1570964 H 40.481262 V 7.9375 H 39.662707 V 1.7818009 h 1.670183 q 0.553972,0 0.938445,0.095085 0.384472,0.090951 0.682129,0.2893881 0.3514,0.2356447 0.541569,0.5870445 0.194304,0.3513999 0.194304,0.8888347 z m -0.851628,0.020671 q 0,-0.3183269 -0.111622,-0.5539716 Q 42.614466,2.8732076 42.38709,2.7243794 42.188652,2.5962218 41.932337,2.5424783 41.680156,2.4846007 41.291549,2.4846007 h -0.810287 v 2.4597992 h 0.690398 q 0.496094,0 0.806152,-0.086816 0.310059,-0.09095 0.504363,-0.285254 0.194303,-0.1984376 0.272851,-0.4175457 0.08268,-0.2191082 0.08268,-0.4919599 z"
         style="font-size:8.46667px;stroke-width:0.264583"
         id="path879" />
      <path
         d="M 48.823908,7.9375 H 44.76834 V 1.7818009 h 4.055568 v 0.7276045 h -3.237013 v 1.6867194 h 3.237013 v 0.7276045 h -3.237013 v 2.2861662 h 3.237013 z"
         style="font-size:8.46667px;stroke-width:0.264583"
         id="path881" />
    </g>
  </g>
</svg>
